<?xml version="1.0" encoding="UTF-8" standalone="no"?>
<!DOCTYPE svg PUBLIC "-//W3C//DTD SVG 1.1//EN"
 "http://www.w3.org/Graphics/SVG/1.1/DTD/svg11.dtd">
<!-- Generated by graphviz version 2.40.1 (20161225.0304)
 -->
<!-- Title: dependencies Pages: 1 -->
<svg width="5863pt" height="284pt"
 viewBox="0.00 0.00 5863.00 284.00" xmlns="http://www.w3.org/2000/svg" xmlns:xlink="http://www.w3.org/1999/xlink">
<g id="graph0" class="graph" transform="scale(1 1) rotate(0) translate(4 280)">
<title>dependencies</title>
<polygon fill="#ffffff" stroke="transparent" points="-4,4 -4,-280 5859,-280 5859,4 -4,4"/>
<text text-anchor="start" x="2906.5091" y="-42.4" font-family="sans-serif" font-weight="bold" font-size="14.00" fill="#000000">Legend</text>
<polygon fill="#ffffb3" stroke="transparent" points="2693.5,-10 2693.5,-30 2713.5,-30 2713.5,-10 2693.5,-10"/>
<text text-anchor="start" x="2717.129" y="-15.4" font-family="sans-serif" font-size="14.00" fill="#000000"> &#160;Declarations</text>
<polygon fill="#8dd3c7" stroke="transparent" points="2806.5,-10 2806.5,-30 2826.5,-30 2826.5,-10 2806.5,-10"/>
<text text-anchor="start" x="2830.2251" y="-15.4" font-family="sans-serif" font-size="14.00" fill="#000000"> &#160;Module</text>
<polygon fill="#80b1d3" stroke="transparent" points="2892.5,-10 2892.5,-30 2912.5,-30 2912.5,-10 2892.5,-10"/>
<text text-anchor="start" x="2916.2812" y="-15.4" font-family="sans-serif" font-size="14.00" fill="#000000"> &#160;Bootstrap</text>
<polygon fill="#fdb462" stroke="transparent" points="2989.5,-10 2989.5,-30 3009.5,-30 3009.5,-10 2989.5,-10"/>
<text text-anchor="start" x="3013.1732" y="-15.4" font-family="sans-serif" font-size="14.00" fill="#000000"> &#160;Providers</text>
<polygon fill="#fb8072" stroke="transparent" points="3085.5,-10 3085.5,-30 3105.5,-30 3105.5,-10 3085.5,-10"/>
<text text-anchor="start" x="3109.2258" y="-15.4" font-family="sans-serif" font-size="14.00" fill="#000000"> &#160;Exports</text>
<g id="clust1" class="cluster">
<title>cluster_AppModule</title>
<polygon fill="none" stroke="#000000" stroke-dasharray="1,5" points="8,-70 8,-268 5847,-268 5847,-70 8,-70"/>
</g>
<g id="clust2" class="cluster">
<title>cluster_AppModule_declarations</title>
<polygon fill="none" stroke="#000000" points="628,-78 628,-130 5839,-130 5839,-78 628,-78"/>
</g>
<g id="clust37" class="cluster">
<title>cluster_AppModule_bootstrap</title>
<polygon fill="none" stroke="#000000" points="2777,-208 2777,-260 2901,-260 2901,-208 2777,-208"/>
</g>
<g id="clust38" class="cluster">
<title>cluster_AppModule_providers</title>
<polygon fill="none" stroke="#000000" points="16,-78 16,-130 620,-130 620,-78 16,-78"/>
</g>
<!-- AddEducationComponent -->
<g id="node1" class="node">
<title>AddEducationComponent</title>
<polygon fill="#ffffb3" stroke="#000000" points="5831.2021,-122 5668.7979,-122 5668.7979,-86 5831.2021,-86 5831.2021,-122"/>
<text text-anchor="middle" x="5750" y="-99.8" font-family="Times,serif" font-size="14.00" fill="#000000">AddEducationComponent</text>
</g>
<!-- AppModule -->
<g id="node33" class="node">
<title>AppModule</title>
<polygon fill="#8dd3c7" stroke="#000000" points="2880.6571,-187 2877.6571,-191 2856.6571,-191 2853.6571,-187 2797.3429,-187 2797.3429,-151 2880.6571,-151 2880.6571,-187"/>
<text text-anchor="middle" x="2839" y="-164.8" font-family="Times,serif" font-size="14.00" fill="#000000">AppModule</text>
</g>
<!-- AddEducationComponent&#45;&gt;AppModule -->
<g id="edge1" class="edge">
<title>AddEducationComponent&#45;&gt;AppModule</title>
<path fill="none" stroke="#000000" d="M5750,-122.3802C5750,-146.2785 5750,-185 5750,-185 5750,-185 2890.7101,-185 2890.7101,-185"/>
<polygon fill="#000000" stroke="#000000" points="2890.7101,-181.5001 2880.7101,-185 2890.71,-188.5001 2890.7101,-181.5001"/>
</g>
<!-- AddExperienceComponent -->
<g id="node2" class="node">
<title>AddExperienceComponent</title>
<polygon fill="#ffffb3" stroke="#000000" points="5651.4017,-122 5482.5983,-122 5482.5983,-86 5651.4017,-86 5651.4017,-122"/>
<text text-anchor="middle" x="5567" y="-99.8" font-family="Times,serif" font-size="14.00" fill="#000000">AddExperienceComponent</text>
</g>
<!-- AddExperienceComponent&#45;&gt;AppModule -->
<g id="edge2" class="edge">
<title>AddExperienceComponent&#45;&gt;AppModule</title>
<path fill="none" stroke="#000000" d="M5567,-122.3228C5567,-145.6602 5567,-183 5567,-183 5567,-183 2890.7587,-183 2890.7587,-183"/>
<polygon fill="#000000" stroke="#000000" points="2890.7588,-179.5001 2880.7587,-183 2890.7587,-186.5001 2890.7588,-179.5001"/>
</g>
<!-- AppComponent -->
<g id="node3" class="node">
<title>AppComponent</title>
<polygon fill="#ffffb3" stroke="#000000" points="5464.9399,-122 5359.0601,-122 5359.0601,-86 5464.9399,-86 5464.9399,-122"/>
<text text-anchor="middle" x="5412" y="-99.8" font-family="Times,serif" font-size="14.00" fill="#000000">AppComponent</text>
</g>
<!-- AppComponent&#45;&gt;AppModule -->
<g id="edge3" class="edge">
<title>AppComponent&#45;&gt;AppModule</title>
<path fill="none" stroke="#000000" d="M5412,-122.2479C5412,-145.0179 5412,-181 5412,-181 5412,-181 2890.7203,-181 2890.7203,-181"/>
<polygon fill="#000000" stroke="#000000" points="2890.7204,-177.5001 2880.7203,-181 2890.7203,-184.5001 2890.7204,-177.5001"/>
</g>
<!-- DashboardComponent -->
<g id="node4" class="node">
<title>DashboardComponent</title>
<polygon fill="#ffffb3" stroke="#000000" points="5340.9734,-122 5199.0266,-122 5199.0266,-86 5340.9734,-86 5340.9734,-122"/>
<text text-anchor="middle" x="5270" y="-99.8" font-family="Times,serif" font-size="14.00" fill="#000000">DashboardComponent</text>
</g>
<!-- DashboardComponent&#45;&gt;AppModule -->
<g id="edge4" class="edge">
<title>DashboardComponent&#45;&gt;AppModule</title>
<path fill="none" stroke="#000000" d="M5270,-122.1554C5270,-144.3519 5270,-179 5270,-179 5270,-179 2890.6831,-179 2890.6831,-179"/>
<polygon fill="#000000" stroke="#000000" points="2890.6831,-175.5001 2880.6831,-179 2890.683,-182.5001 2890.6831,-175.5001"/>
</g>
<!-- DevelopersListComponent -->
<g id="node5" class="node">
<title>DevelopersListComponent</title>
<polygon fill="#ffffb3" stroke="#000000" points="5181.3571,-122 5014.6429,-122 5014.6429,-86 5181.3571,-86 5181.3571,-122"/>
<text text-anchor="middle" x="5098" y="-99.8" font-family="Times,serif" font-size="14.00" fill="#000000">DevelopersListComponent</text>
</g>
<!-- DevelopersListComponent&#45;&gt;AppModule -->
<g id="edge5" class="edge">
<title>DevelopersListComponent&#45;&gt;AppModule</title>
<path fill="none" stroke="#000000" d="M5098,-122.0449C5098,-143.6623 5098,-177 5098,-177 5098,-177 2891.118,-177 2891.118,-177"/>
<polygon fill="#000000" stroke="#000000" points="2891.1181,-173.5001 2881.118,-177 2891.118,-180.5001 2891.1181,-173.5001"/>
</g>
<!-- DonationsMobileViewComponent -->
<g id="node6" class="node">
<title>DonationsMobileViewComponent</title>
<polygon fill="#ffffb3" stroke="#000000" points="4996.6385,-122 4787.3615,-122 4787.3615,-86 4996.6385,-86 4996.6385,-122"/>
<text text-anchor="middle" x="4892" y="-99.8" font-family="Times,serif" font-size="14.00" fill="#000000">DonationsMobileViewComponent</text>
</g>
<!-- DonationsMobileViewComponent&#45;&gt;AppModule -->
<g id="edge6" class="edge">
<title>DonationsMobileViewComponent&#45;&gt;AppModule</title>
<path fill="none" stroke="#000000" d="M4892,-122.2843C4892,-143.3211 4892,-175 4892,-175 4892,-175 2890.9398,-175 2890.9398,-175"/>
<polygon fill="#000000" stroke="#000000" points="2890.9398,-171.5001 2880.9398,-175 2890.9397,-178.5001 2890.9398,-171.5001"/>
</g>
<!-- EditEducationComponent -->
<g id="node7" class="node">
<title>EditEducationComponent</title>
<polygon fill="#ffffb3" stroke="#000000" points="4768.9298,-122 4607.0702,-122 4607.0702,-86 4768.9298,-86 4768.9298,-122"/>
<text text-anchor="middle" x="4688" y="-99.8" font-family="Times,serif" font-size="14.00" fill="#000000">EditEducationComponent</text>
</g>
<!-- EditEducationComponent&#45;&gt;AppModule -->
<g id="edge7" class="edge">
<title>EditEducationComponent&#45;&gt;AppModule</title>
<path fill="none" stroke="#000000" d="M4688,-122.1289C4688,-142.5724 4688,-173 4688,-173 4688,-173 2891.093,-173 2891.093,-173"/>
<polygon fill="#000000" stroke="#000000" points="2891.093,-169.5001 2881.093,-173 2891.093,-176.5001 2891.093,-169.5001"/>
</g>
<!-- EditExperienceComponent -->
<g id="node8" class="node">
<title>EditExperienceComponent</title>
<polygon fill="#ffffb3" stroke="#000000" points="4588.6288,-122 4421.3712,-122 4421.3712,-86 4588.6288,-86 4588.6288,-122"/>
<text text-anchor="middle" x="4505" y="-99.8" font-family="Times,serif" font-size="14.00" fill="#000000">EditExperienceComponent</text>
</g>
<!-- EditExperienceComponent&#45;&gt;AppModule -->
<g id="edge8" class="edge">
<title>EditExperienceComponent&#45;&gt;AppModule</title>
<path fill="none" stroke="#000000" d="M4505,-122.308C4505,-142.1455 4505,-171 4505,-171 4505,-171 2891.0155,-171 2891.0155,-171"/>
<polygon fill="#000000" stroke="#000000" points="2891.0155,-167.5001 2881.0155,-171 2891.0155,-174.5001 2891.0155,-167.5001"/>
</g>
<!-- EditProfileComponent -->
<g id="node9" class="node">
<title>EditProfileComponent</title>
<polygon fill="#ffffb3" stroke="#000000" points="4403.266,-122 4260.734,-122 4260.734,-86 4403.266,-86 4403.266,-122"/>
<text text-anchor="middle" x="4332" y="-99.8" font-family="Times,serif" font-size="14.00" fill="#000000">EditProfileComponent</text>
</g>
<!-- EditProfileComponent&#45;&gt;AppModule -->
<g id="edge9" class="edge">
<title>EditProfileComponent&#45;&gt;AppModule</title>
<path fill="none" stroke="#000000" d="M4332,-122.1061C4332,-141.3391 4332,-169 4332,-169 4332,-169 2890.8828,-169 2890.8828,-169"/>
<polygon fill="#000000" stroke="#000000" points="2890.8828,-165.5001 2880.8828,-169 2890.8827,-172.5001 2890.8828,-165.5001"/>
</g>
<!-- EducationComponent -->
<g id="node10" class="node">
<title>EducationComponent</title>
<polygon fill="#ffffb3" stroke="#000000" points="4243.0954,-122 4104.9046,-122 4104.9046,-86 4243.0954,-86 4243.0954,-122"/>
<text text-anchor="middle" x="4174" y="-99.8" font-family="Times,serif" font-size="14.00" fill="#000000">EducationComponent</text>
</g>
<!-- EducationComponent&#45;&gt;AppModule -->
<g id="edge10" class="edge">
<title>EducationComponent&#45;&gt;AppModule</title>
<path fill="none" stroke="#000000" d="M4174,-122.2222C4174,-140.8285 4174,-167 4174,-167 4174,-167 2890.7876,-167 2890.7876,-167"/>
<polygon fill="#000000" stroke="#000000" points="2890.7876,-163.5001 2880.7876,-167 2890.7875,-170.5001 2890.7876,-163.5001"/>
</g>
<!-- EducationMobileViewComponent -->
<g id="node11" class="node">
<title>EducationMobileViewComponent</title>
<polygon fill="#ffffb3" stroke="#000000" points="4087.3543,-122 3878.6457,-122 3878.6457,-86 4087.3543,-86 4087.3543,-122"/>
<text text-anchor="middle" x="3983" y="-99.8" font-family="Times,serif" font-size="14.00" fill="#000000">EducationMobileViewComponent</text>
</g>
<!-- EducationMobileViewComponent&#45;&gt;AppModule -->
<g id="edge11" class="edge">
<title>EducationMobileViewComponent&#45;&gt;AppModule</title>
<path fill="none" stroke="#000000" d="M3983,-122.302C3983,-140.2699 3983,-165 3983,-165 3983,-165 2890.7312,-165 2890.7312,-165"/>
<polygon fill="#000000" stroke="#000000" points="2890.7313,-161.5001 2880.7312,-165 2890.7312,-168.5001 2890.7313,-161.5001"/>
</g>
<!-- ExperienceComponent -->
<g id="node12" class="node">
<title>ExperienceComponent</title>
<polygon fill="#ffffb3" stroke="#000000" points="3860.2949,-122 3715.7051,-122 3715.7051,-86 3860.2949,-86 3860.2949,-122"/>
<text text-anchor="middle" x="3788" y="-99.8" font-family="Times,serif" font-size="14.00" fill="#000000">ExperienceComponent</text>
</g>
<!-- ExperienceComponent&#45;&gt;AppModule -->
<g id="edge12" class="edge">
<title>ExperienceComponent&#45;&gt;AppModule</title>
<path fill="none" stroke="#000000" d="M3788,-122.0225C3788,-139.3734 3788,-163 3788,-163 3788,-163 2890.6942,-163 2890.6942,-163"/>
<polygon fill="#000000" stroke="#000000" points="2890.6942,-159.5001 2880.6942,-163 2890.6942,-166.5001 2890.6942,-159.5001"/>
</g>
<!-- ExperienceMobileViewComponent -->
<g id="node13" class="node">
<title>ExperienceMobileViewComponent</title>
<polygon fill="#ffffb3" stroke="#000000" points="3697.5534,-122 3482.4466,-122 3482.4466,-86 3697.5534,-86 3697.5534,-122"/>
<text text-anchor="middle" x="3590" y="-99.8" font-family="Times,serif" font-size="14.00" fill="#000000">ExperienceMobileViewComponent</text>
</g>
<!-- ExperienceMobileViewComponent&#45;&gt;AppModule -->
<g id="edge13" class="edge">
<title>ExperienceMobileViewComponent&#45;&gt;AppModule</title>
<path fill="none" stroke="#000000" d="M3590,-122.0352C3590,-138.7344 3590,-161 3590,-161 3590,-161 2890.7161,-161 2890.7161,-161"/>
<polygon fill="#000000" stroke="#000000" points="2890.7162,-157.5001 2880.7161,-161 2890.7161,-164.5001 2890.7162,-157.5001"/>
</g>
<!-- FabComponent -->
<g id="node14" class="node">
<title>FabComponent</title>
<polygon fill="#ffffb3" stroke="#000000" points="3464.3301,-122 3361.6699,-122 3361.6699,-86 3464.3301,-86 3464.3301,-122"/>
<text text-anchor="middle" x="3413" y="-99.8" font-family="Times,serif" font-size="14.00" fill="#000000">FabComponent</text>
</g>
<!-- FabComponent&#45;&gt;AppModule -->
<g id="edge14" class="edge">
<title>FabComponent&#45;&gt;AppModule</title>
<path fill="none" stroke="#000000" d="M3413,-122.0091C3413,-138.0494 3413,-159 3413,-159 3413,-159 2890.743,-159 2890.743,-159"/>
<polygon fill="#000000" stroke="#000000" points="2890.7431,-155.5001 2880.743,-159 2890.743,-162.5001 2890.7431,-155.5001"/>
</g>
<!-- FakeGithubPage -->
<g id="node15" class="node">
<title>FakeGithubPage</title>
<polygon fill="#ffffb3" stroke="#000000" points="3343.8118,-122 3234.1882,-122 3234.1882,-86 3343.8118,-86 3343.8118,-122"/>
<text text-anchor="middle" x="3289" y="-99.8" font-family="Times,serif" font-size="14.00" fill="#000000">FakeGithubPage</text>
</g>
<!-- FakeGithubPage&#45;&gt;AppModule -->
<g id="edge15" class="edge">
<title>FakeGithubPage&#45;&gt;AppModule</title>
<path fill="none" stroke="#000000" d="M3289,-122.2396C3289,-137.5706 3289,-157 3289,-157 3289,-157 2890.9308,-157 2890.9308,-157"/>
<polygon fill="#000000" stroke="#000000" points="2890.9308,-153.5001 2880.9308,-157 2890.9308,-160.5001 2890.9308,-153.5001"/>
</g>
<!-- FooterComponent -->
<g id="node16" class="node">
<title>FooterComponent</title>
<polygon fill="#ffffb3" stroke="#000000" points="3215.8809,-122 3098.1191,-122 3098.1191,-86 3215.8809,-86 3215.8809,-122"/>
<text text-anchor="middle" x="3157" y="-99.8" font-family="Times,serif" font-size="14.00" fill="#000000">FooterComponent</text>
</g>
<!-- FooterComponent&#45;&gt;AppModule -->
<g id="edge16" class="edge">
<title>FooterComponent&#45;&gt;AppModule</title>
<path fill="none" stroke="#000000" d="M3157,-122.1243C3157,-136.7832 3157,-155 3157,-155 3157,-155 2890.8999,-155 2890.8999,-155"/>
<polygon fill="#000000" stroke="#000000" points="2890.9,-151.5001 2880.8999,-155 2890.8999,-158.5001 2890.9,-151.5001"/>
</g>
<!-- GithubComponent -->
<g id="node17" class="node">
<title>GithubComponent</title>
<polygon fill="#ffffb3" stroke="#000000" points="3080.2204,-122 2959.7796,-122 2959.7796,-86 3080.2204,-86 3080.2204,-122"/>
<text text-anchor="middle" x="3020" y="-99.8" font-family="Times,serif" font-size="14.00" fill="#000000">GithubComponent</text>
</g>
<!-- GithubComponent&#45;&gt;AppModule -->
<g id="edge17" class="edge">
<title>GithubComponent&#45;&gt;AppModule</title>
<path fill="none" stroke="#000000" d="M3020,-122.2458C3020,-136.1772 3020,-153 3020,-153 3020,-153 2890.98,-153 2890.98,-153"/>
<polygon fill="#000000" stroke="#000000" points="2890.98,-149.5001 2880.98,-153 2890.9799,-156.5001 2890.98,-149.5001"/>
</g>
<!-- HomePage -->
<g id="node18" class="node">
<title>HomePage</title>
<polygon fill="#ffffb3" stroke="#000000" points="2941.9248,-122 2864.0752,-122 2864.0752,-86 2941.9248,-86 2941.9248,-122"/>
<text text-anchor="middle" x="2903" y="-99.8" font-family="Times,serif" font-size="14.00" fill="#000000">HomePage</text>
</g>
<!-- HomePage&#45;&gt;AppModule -->
<g id="edge18" class="edge">
<title>HomePage&#45;&gt;AppModule</title>
<path fill="none" stroke="#000000" d="M2872.5582,-122.1061C2872.5582,-122.1061 2872.5582,-140.991 2872.5582,-140.991"/>
<polygon fill="#000000" stroke="#000000" points="2869.0583,-140.9909 2872.5582,-150.991 2876.0583,-140.991 2869.0583,-140.9909"/>
</g>
<!-- InfoModalComponent -->
<g id="node19" class="node">
<title>InfoModalComponent</title>
<polygon fill="#ffffb3" stroke="#000000" points="2846.7035,-122 2705.2965,-122 2705.2965,-86 2846.7035,-86 2846.7035,-122"/>
<text text-anchor="middle" x="2776" y="-99.8" font-family="Times,serif" font-size="14.00" fill="#000000">InfoModalComponent</text>
</g>
<!-- InfoModalComponent&#45;&gt;AppModule -->
<g id="edge19" class="edge">
<title>InfoModalComponent&#45;&gt;AppModule</title>
<path fill="none" stroke="#000000" d="M2821.8868,-122.1061C2821.8868,-122.1061 2821.8868,-140.991 2821.8868,-140.991"/>
<polygon fill="#000000" stroke="#000000" points="2818.3868,-140.9909 2821.8868,-150.991 2825.3868,-140.991 2818.3868,-140.9909"/>
</g>
<!-- LoginComponent -->
<g id="node20" class="node">
<title>LoginComponent</title>
<polygon fill="#ffffb3" stroke="#000000" points="2687.2758,-122 2572.7242,-122 2572.7242,-86 2687.2758,-86 2687.2758,-122"/>
<text text-anchor="middle" x="2630" y="-99.8" font-family="Times,serif" font-size="14.00" fill="#000000">LoginComponent</text>
</g>
<!-- LoginComponent&#45;&gt;AppModule -->
<g id="edge20" class="edge">
<title>LoginComponent&#45;&gt;AppModule</title>
<path fill="none" stroke="#000000" d="M2630,-122.2458C2630,-136.1772 2630,-153 2630,-153 2630,-153 2787.208,-153 2787.208,-153"/>
<polygon fill="#000000" stroke="#000000" points="2787.2081,-156.5001 2797.208,-153 2787.208,-149.5001 2787.2081,-156.5001"/>
</g>
<!-- NavbarComponent -->
<g id="node21" class="node">
<title>NavbarComponent</title>
<polygon fill="#ffffb3" stroke="#000000" points="2554.0297,-122 2431.9703,-122 2431.9703,-86 2554.0297,-86 2554.0297,-122"/>
<text text-anchor="middle" x="2493" y="-99.8" font-family="Times,serif" font-size="14.00" fill="#000000">NavbarComponent</text>
</g>
<!-- NavbarComponent&#45;&gt;AppModule -->
<g id="edge21" class="edge">
<title>NavbarComponent&#45;&gt;AppModule</title>
<path fill="none" stroke="#000000" d="M2493,-122.1243C2493,-136.7832 2493,-155 2493,-155 2493,-155 2787.2643,-155 2787.2643,-155"/>
<polygon fill="#000000" stroke="#000000" points="2787.2644,-158.5001 2797.2643,-155 2787.2643,-151.5001 2787.2644,-158.5001"/>
</g>
<!-- PageNotFoundComponent -->
<g id="node22" class="node">
<title>PageNotFoundComponent</title>
<polygon fill="#ffffb3" stroke="#000000" points="2413.8243,-122 2248.1757,-122 2248.1757,-86 2413.8243,-86 2413.8243,-122"/>
<text text-anchor="middle" x="2331" y="-99.8" font-family="Times,serif" font-size="14.00" fill="#000000">PageNotFoundComponent</text>
</g>
<!-- PageNotFoundComponent&#45;&gt;AppModule -->
<g id="edge22" class="edge">
<title>PageNotFoundComponent&#45;&gt;AppModule</title>
<path fill="none" stroke="#000000" d="M2331,-122.2396C2331,-137.5706 2331,-157 2331,-157 2331,-157 2786.996,-157 2786.996,-157"/>
<polygon fill="#000000" stroke="#000000" points="2786.9961,-160.5001 2796.996,-157 2786.996,-153.5001 2786.9961,-160.5001"/>
</g>
<!-- ProfileComponent -->
<g id="node23" class="node">
<title>ProfileComponent</title>
<polygon fill="#ffffb3" stroke="#000000" points="2230.9328,-122 2111.0672,-122 2111.0672,-86 2230.9328,-86 2230.9328,-122"/>
<text text-anchor="middle" x="2171" y="-99.8" font-family="Times,serif" font-size="14.00" fill="#000000">ProfileComponent</text>
</g>
<!-- ProfileComponent&#45;&gt;AppModule -->
<g id="edge23" class="edge">
<title>ProfileComponent&#45;&gt;AppModule</title>
<path fill="none" stroke="#000000" d="M2171,-122.0091C2171,-138.0494 2171,-159 2171,-159 2171,-159 2787.2136,-159 2787.2136,-159"/>
<polygon fill="#000000" stroke="#000000" points="2787.2136,-162.5001 2797.2136,-159 2787.2136,-155.5001 2787.2136,-162.5001"/>
</g>
<!-- SectionsComponent -->
<g id="node24" class="node">
<title>SectionsComponent</title>
<polygon fill="#ffffb3" stroke="#000000" points="2093.2702,-122 1964.7298,-122 1964.7298,-86 2093.2702,-86 2093.2702,-122"/>
<text text-anchor="middle" x="2029" y="-99.8" font-family="Times,serif" font-size="14.00" fill="#000000">SectionsComponent</text>
</g>
<!-- SectionsComponent&#45;&gt;AppModule -->
<g id="edge24" class="edge">
<title>SectionsComponent&#45;&gt;AppModule</title>
<path fill="none" stroke="#000000" d="M2029,-122.0352C2029,-138.7344 2029,-161 2029,-161 2029,-161 2787.1565,-161 2787.1565,-161"/>
<polygon fill="#000000" stroke="#000000" points="2787.1566,-164.5001 2797.1565,-161 2787.1565,-157.5001 2787.1566,-164.5001"/>
</g>
<!-- SessionExpiredComponent -->
<g id="node25" class="node">
<title>SessionExpiredComponent</title>
<polygon fill="#ffffb3" stroke="#000000" points="1946.4283,-122 1777.5717,-122 1777.5717,-86 1946.4283,-86 1946.4283,-122"/>
<text text-anchor="middle" x="1862" y="-99.8" font-family="Times,serif" font-size="14.00" fill="#000000">SessionExpiredComponent</text>
</g>
<!-- SessionExpiredComponent&#45;&gt;AppModule -->
<g id="edge25" class="edge">
<title>SessionExpiredComponent&#45;&gt;AppModule</title>
<path fill="none" stroke="#000000" d="M1862,-122.0225C1862,-139.3734 1862,-163 1862,-163 1862,-163 2787.3321,-163 2787.3321,-163"/>
<polygon fill="#000000" stroke="#000000" points="2787.3321,-166.5001 2797.3321,-163 2787.332,-159.5001 2787.3321,-166.5001"/>
</g>
<!-- SessionExpiredPage -->
<g id="node26" class="node">
<title>SessionExpiredPage</title>
<polygon fill="#ffffb3" stroke="#000000" points="1760.3076,-122 1629.6924,-122 1629.6924,-86 1760.3076,-86 1760.3076,-122"/>
<text text-anchor="middle" x="1695" y="-99.8" font-family="Times,serif" font-size="14.00" fill="#000000">SessionExpiredPage</text>
</g>
<!-- SessionExpiredPage&#45;&gt;AppModule -->
<g id="edge26" class="edge">
<title>SessionExpiredPage&#45;&gt;AppModule</title>
<path fill="none" stroke="#000000" d="M1695,-122.302C1695,-140.2699 1695,-165 1695,-165 1695,-165 2787.2688,-165 2787.2688,-165"/>
<polygon fill="#000000" stroke="#000000" points="2787.2688,-168.5001 2797.2688,-165 2787.2687,-161.5001 2787.2688,-168.5001"/>
</g>
<!-- SignupComponent -->
<g id="node27" class="node">
<title>SignupComponent</title>
<polygon fill="#ffffb3" stroke="#000000" points="1611.5056,-122 1490.4944,-122 1490.4944,-86 1611.5056,-86 1611.5056,-122"/>
<text text-anchor="middle" x="1551" y="-99.8" font-family="Times,serif" font-size="14.00" fill="#000000">SignupComponent</text>
</g>
<!-- SignupComponent&#45;&gt;AppModule -->
<g id="edge27" class="edge">
<title>SignupComponent&#45;&gt;AppModule</title>
<path fill="none" stroke="#000000" d="M1551,-122.2222C1551,-140.8285 1551,-167 1551,-167 1551,-167 2787.2422,-167 2787.2422,-167"/>
<polygon fill="#000000" stroke="#000000" points="2787.2422,-170.5001 2797.2422,-167 2787.2421,-163.5001 2787.2422,-170.5001"/>
</g>
<!-- SkillsComponent -->
<g id="node28" class="node">
<title>SkillsComponent</title>
<polygon fill="#ffffb3" stroke="#000000" points="1472.7316,-122 1359.2684,-122 1359.2684,-86 1472.7316,-86 1472.7316,-122"/>
<text text-anchor="middle" x="1416" y="-99.8" font-family="Times,serif" font-size="14.00" fill="#000000">SkillsComponent</text>
</g>
<!-- SkillsComponent&#45;&gt;AppModule -->
<g id="edge28" class="edge">
<title>SkillsComponent&#45;&gt;AppModule</title>
<path fill="none" stroke="#000000" d="M1416,-122.1061C1416,-141.3391 1416,-169 1416,-169 1416,-169 2787.183,-169 2787.183,-169"/>
<polygon fill="#000000" stroke="#000000" points="2787.183,-172.5001 2797.183,-169 2787.1829,-165.5001 2787.183,-172.5001"/>
</g>
<!-- SocialIconsComponent -->
<g id="node29" class="node">
<title>SocialIconsComponent</title>
<polygon fill="#ffffb3" stroke="#000000" points="1341.1456,-122 1194.8544,-122 1194.8544,-86 1341.1456,-86 1341.1456,-122"/>
<text text-anchor="middle" x="1268" y="-99.8" font-family="Times,serif" font-size="14.00" fill="#000000">SocialIconsComponent</text>
</g>
<!-- SocialIconsComponent&#45;&gt;AppModule -->
<g id="edge29" class="edge">
<title>SocialIconsComponent&#45;&gt;AppModule</title>
<path fill="none" stroke="#000000" d="M1268,-122.308C1268,-142.1455 1268,-171 1268,-171 1268,-171 2786.9795,-171 2786.9795,-171"/>
<polygon fill="#000000" stroke="#000000" points="2786.9796,-174.5001 2796.9795,-171 2786.9795,-167.5001 2786.9796,-174.5001"/>
</g>
<!-- SupporterModalComponent -->
<g id="node30" class="node">
<title>SupporterModalComponent</title>
<polygon fill="#ffffb3" stroke="#000000" points="1176.5912,-122 1003.4088,-122 1003.4088,-86 1176.5912,-86 1176.5912,-122"/>
<text text-anchor="middle" x="1090" y="-99.8" font-family="Times,serif" font-size="14.00" fill="#000000">SupporterModalComponent</text>
</g>
<!-- SupporterModalComponent&#45;&gt;AppModule -->
<g id="edge30" class="edge">
<title>SupporterModalComponent&#45;&gt;AppModule</title>
<path fill="none" stroke="#000000" d="M1090,-122.1289C1090,-142.5724 1090,-173 1090,-173 1090,-173 2787.0629,-173 2787.0629,-173"/>
<polygon fill="#000000" stroke="#000000" points="2787.063,-176.5001 2797.0629,-173 2787.0629,-169.5001 2787.063,-176.5001"/>
</g>
<!-- TestimonialsComponent -->
<g id="node31" class="node">
<title>TestimonialsComponent</title>
<polygon fill="#ffffb3" stroke="#000000" points="985.6568,-122 832.3432,-122 832.3432,-86 985.6568,-86 985.6568,-122"/>
<text text-anchor="middle" x="909" y="-99.8" font-family="Times,serif" font-size="14.00" fill="#000000">TestimonialsComponent</text>
</g>
<!-- TestimonialsComponent&#45;&gt;AppModule -->
<g id="edge31" class="edge">
<title>TestimonialsComponent&#45;&gt;AppModule</title>
<path fill="none" stroke="#000000" d="M909,-122.2843C909,-143.3211 909,-175 909,-175 909,-175 2786.8943,-175 2786.8943,-175"/>
<polygon fill="#000000" stroke="#000000" points="2786.8943,-178.5001 2796.8943,-175 2786.8943,-171.5001 2786.8943,-178.5001"/>
</g>
<!-- ThankYouModalComponent -->
<g id="node32" class="node">
<title>ThankYouModalComponent</title>
<polygon fill="#ffffb3" stroke="#000000" points="813.7562,-122 636.2438,-122 636.2438,-86 813.7562,-86 813.7562,-122"/>
<text text-anchor="middle" x="725" y="-99.8" font-family="Times,serif" font-size="14.00" fill="#000000">ThankYouModalComponent</text>
</g>
<!-- ThankYouModalComponent&#45;&gt;AppModule -->
<g id="edge32" class="edge">
<title>ThankYouModalComponent&#45;&gt;AppModule</title>
<path fill="none" stroke="#000000" d="M725,-122.0449C725,-143.6623 725,-177 725,-177 725,-177 2787.2473,-177 2787.2473,-177"/>
<polygon fill="#000000" stroke="#000000" points="2787.2473,-180.5001 2797.2473,-177 2787.2472,-173.5001 2787.2473,-180.5001"/>
</g>
<!-- AppComponent  -->
<g id="node34" class="node">
<title>AppComponent </title>
<polygon fill="#80b1d3" stroke="#000000" points="2893.439,-252 2784.561,-252 2784.561,-216 2893.439,-216 2893.439,-252"/>
<text text-anchor="middle" x="2839" y="-229.8" font-family="Times,serif" font-size="14.00" fill="#000000">AppComponent </text>
</g>
<!-- AppModule&#45;&gt;AppComponent  -->
<g id="edge33" class="edge">
<title>AppModule&#45;&gt;AppComponent </title>
<path fill="none" stroke="#000000" stroke-dasharray="1,5" d="M2839,-187.1061C2839,-187.1061 2839,-205.991 2839,-205.991"/>
<polygon fill="#000000" stroke="#000000" points="2835.5001,-205.9909 2839,-215.991 2842.5001,-205.991 2835.5001,-205.9909"/>
</g>
<!-- AuthService -->
<g id="node35" class="node">
<title>AuthService</title>
<ellipse fill="#fdb462" stroke="#000000" cx="553" cy="-104" rx="59.1083" ry="18"/>
<text text-anchor="middle" x="553" y="-99.8" font-family="Times,serif" font-size="14.00" fill="#000000">AuthService</text>
</g>
<!-- AuthService&#45;&gt;AppModule -->
<g id="edge34" class="edge">
<title>AuthService&#45;&gt;AppModule</title>
<path fill="none" stroke="#000000" d="M553,-122.1554C553,-144.3519 553,-179 553,-179 553,-179 2786.876,-179 2786.876,-179"/>
<polygon fill="#000000" stroke="#000000" points="2786.8761,-182.5001 2796.876,-179 2786.876,-175.5001 2786.8761,-182.5001"/>
</g>
<!-- FakeService -->
<g id="node36" class="node">
<title>FakeService</title>
<ellipse fill="#fdb462" stroke="#000000" cx="417" cy="-104" rx="58.5251" ry="18"/>
<text text-anchor="middle" x="417" y="-99.8" font-family="Times,serif" font-size="14.00" fill="#000000">FakeService</text>
</g>
<!-- FakeService&#45;&gt;AppModule -->
<g id="edge35" class="edge">
<title>FakeService&#45;&gt;AppModule</title>
<path fill="none" stroke="#000000" d="M417,-122.2479C417,-145.0179 417,-181 417,-181 417,-181 2787.2168,-181 2787.2168,-181"/>
<polygon fill="#000000" stroke="#000000" points="2787.2168,-184.5001 2797.2168,-181 2787.2168,-177.5001 2787.2168,-184.5001"/>
</g>
<!-- GithubService -->
<g id="node37" class="node">
<title>GithubService</title>
<ellipse fill="#fdb462" stroke="#000000" cx="273" cy="-104" rx="66.6325" ry="18"/>
<text text-anchor="middle" x="273" y="-99.8" font-family="Times,serif" font-size="14.00" fill="#000000">GithubService</text>
</g>
<!-- GithubService&#45;&gt;AppModule -->
<g id="edge36" class="edge">
<title>GithubService&#45;&gt;AppModule</title>
<path fill="none" stroke="#000000" d="M273,-122.3228C273,-145.6602 273,-183 273,-183 273,-183 2787.1306,-183 2787.1306,-183"/>
<polygon fill="#000000" stroke="#000000" points="2787.1306,-186.5001 2797.1306,-183 2787.1306,-179.5001 2787.1306,-186.5001"/>
</g>
<!-- HomePageService -->
<g id="node38" class="node">
<title>HomePageService</title>
<ellipse fill="#fdb462" stroke="#000000" cx="106" cy="-104" rx="82.2218" ry="18"/>
<text text-anchor="middle" x="106" y="-99.8" font-family="Times,serif" font-size="14.00" fill="#000000">HomePageService</text>
</g>
<!-- HomePageService&#45;&gt;AppModule -->
<g id="edge37" class="edge">
<title>HomePageService&#45;&gt;AppModule</title>
<path fill="none" stroke="#000000" d="M106,-122.3802C106,-146.2785 106,-185 106,-185 106,-185 2787.1647,-185 2787.1647,-185"/>
<polygon fill="#000000" stroke="#000000" points="2787.1648,-188.5001 2797.1647,-185 2787.1647,-181.5001 2787.1648,-188.5001"/>
</g>
</g>
</svg>
