<?xml version="1.0" encoding="UTF-8" standalone="no"?>
<!DOCTYPE svg PUBLIC "-//W3C//DTD SVG 1.1//EN"
 "http://www.w3.org/Graphics/SVG/1.1/DTD/svg11.dtd">
<!-- Generated by graphviz version 2.40.1 (20161225.0304)
 -->
<!-- Title: dependencies Pages: 1 -->
<svg width="5696pt" height="284pt"
 viewBox="0.00 0.00 5696.00 284.00" xmlns="http://www.w3.org/2000/svg" xmlns:xlink="http://www.w3.org/1999/xlink">
<g id="graph0" class="graph" transform="scale(1 1) rotate(0) translate(4 280)">
<title>dependencies</title>
<polygon fill="#ffffff" stroke="transparent" points="-4,4 -4,-280 5692,-280 5692,4 -4,4"/>
<text text-anchor="start" x="2823.0091" y="-42.4" font-family="sans-serif" font-weight="bold" font-size="14.00" fill="#000000">Legend</text>
<polygon fill="#ffffb3" stroke="transparent" points="2610,-10 2610,-30 2630,-30 2630,-10 2610,-10"/>
<text text-anchor="start" x="2633.629" y="-15.4" font-family="sans-serif" font-size="14.00" fill="#000000"> &#160;Declarations</text>
<polygon fill="#8dd3c7" stroke="transparent" points="2723,-10 2723,-30 2743,-30 2743,-10 2723,-10"/>
<text text-anchor="start" x="2746.7251" y="-15.4" font-family="sans-serif" font-size="14.00" fill="#000000"> &#160;Module</text>
<polygon fill="#80b1d3" stroke="transparent" points="2809,-10 2809,-30 2829,-30 2829,-10 2809,-10"/>
<text text-anchor="start" x="2832.7812" y="-15.4" font-family="sans-serif" font-size="14.00" fill="#000000"> &#160;Bootstrap</text>
<polygon fill="#fdb462" stroke="transparent" points="2906,-10 2906,-30 2926,-30 2926,-10 2906,-10"/>
<text text-anchor="start" x="2929.6732" y="-15.4" font-family="sans-serif" font-size="14.00" fill="#000000"> &#160;Providers</text>
<polygon fill="#fb8072" stroke="transparent" points="3002,-10 3002,-30 3022,-30 3022,-10 3002,-10"/>
<text text-anchor="start" x="3025.7258" y="-15.4" font-family="sans-serif" font-size="14.00" fill="#000000"> &#160;Exports</text>
<g id="clust1" class="cluster">
<title>cluster_AppModule</title>
<polygon fill="none" stroke="#000000" stroke-dasharray="1,5" points="8,-70 8,-268 5680,-268 5680,-70 8,-70"/>
</g>
<g id="clust2" class="cluster">
<title>cluster_AppModule_declarations</title>
<polygon fill="none" stroke="#000000" points="780,-78 780,-130 5672,-130 5672,-78 780,-78"/>
</g>
<g id="clust33" class="cluster">
<title>cluster_AppModule_imports</title>
<polygon fill="none" stroke="#000000" points="628,-78 628,-130 772,-130 772,-78 628,-78"/>
</g>
<g id="clust35" class="cluster">
<title>cluster_AppModule_bootstrap</title>
<polygon fill="none" stroke="#000000" points="2683,-208 2683,-260 2807,-260 2807,-208 2683,-208"/>
</g>
<g id="clust36" class="cluster">
<title>cluster_AppModule_providers</title>
<polygon fill="none" stroke="#000000" points="16,-78 16,-130 620,-130 620,-78 16,-78"/>
</g>
<!-- AddEducationComponent -->
<g id="node1" class="node">
<title>AddEducationComponent</title>
<polygon fill="#ffffb3" stroke="#000000" points="5664.2021,-122 5501.7979,-122 5501.7979,-86 5664.2021,-86 5664.2021,-122"/>
<text text-anchor="middle" x="5583" y="-99.8" font-family="Times,serif" font-size="14.00" fill="#000000">AddEducationComponent</text>
</g>
<!-- AppModule -->
<g id="node31" class="node">
<title>AppModule</title>
<polygon fill="#8dd3c7" stroke="#000000" points="2786.6571,-187 2783.6571,-191 2762.6571,-191 2759.6571,-187 2703.3429,-187 2703.3429,-151 2786.6571,-151 2786.6571,-187"/>
<text text-anchor="middle" x="2745" y="-164.8" font-family="Times,serif" font-size="14.00" fill="#000000">AppModule</text>
</g>
<!-- AddEducationComponent&#45;&gt;AppModule -->
<g id="edge1" class="edge">
<title>AddEducationComponent&#45;&gt;AppModule</title>
<path fill="none" stroke="#000000" d="M5583,-122.3802C5583,-146.2785 5583,-185 5583,-185 5583,-185 2796.7651,-185 2796.7651,-185"/>
<polygon fill="#000000" stroke="#000000" points="2796.7651,-181.5001 2786.7651,-185 2796.765,-188.5001 2796.7651,-181.5001"/>
</g>
<!-- AddExperienceComponent -->
<g id="node2" class="node">
<title>AddExperienceComponent</title>
<polygon fill="#ffffb3" stroke="#000000" points="5484.4017,-122 5315.5983,-122 5315.5983,-86 5484.4017,-86 5484.4017,-122"/>
<text text-anchor="middle" x="5400" y="-99.8" font-family="Times,serif" font-size="14.00" fill="#000000">AddExperienceComponent</text>
</g>
<!-- AddExperienceComponent&#45;&gt;AppModule -->
<g id="edge2" class="edge">
<title>AddExperienceComponent&#45;&gt;AppModule</title>
<path fill="none" stroke="#000000" d="M5400,-122.3228C5400,-145.6602 5400,-183 5400,-183 5400,-183 2796.7037,-183 2796.7037,-183"/>
<polygon fill="#000000" stroke="#000000" points="2796.7037,-179.5001 2786.7037,-183 2796.7037,-186.5001 2796.7037,-179.5001"/>
</g>
<!-- AppComponent -->
<g id="node3" class="node">
<title>AppComponent</title>
<polygon fill="#ffffb3" stroke="#000000" points="5297.9399,-122 5192.0601,-122 5192.0601,-86 5297.9399,-86 5297.9399,-122"/>
<text text-anchor="middle" x="5245" y="-99.8" font-family="Times,serif" font-size="14.00" fill="#000000">AppComponent</text>
</g>
<!-- AppComponent&#45;&gt;AppModule -->
<g id="edge3" class="edge">
<title>AppComponent&#45;&gt;AppModule</title>
<path fill="none" stroke="#000000" d="M5245,-122.2479C5245,-145.0179 5245,-181 5245,-181 5245,-181 2796.8233,-181 2796.8233,-181"/>
<polygon fill="#000000" stroke="#000000" points="2796.8233,-177.5001 2786.8233,-181 2796.8232,-184.5001 2796.8233,-177.5001"/>
</g>
<!-- DashboardComponent -->
<g id="node4" class="node">
<title>DashboardComponent</title>
<polygon fill="#ffffb3" stroke="#000000" points="5173.9734,-122 5032.0266,-122 5032.0266,-86 5173.9734,-86 5173.9734,-122"/>
<text text-anchor="middle" x="5103" y="-99.8" font-family="Times,serif" font-size="14.00" fill="#000000">DashboardComponent</text>
</g>
<!-- DashboardComponent&#45;&gt;AppModule -->
<g id="edge4" class="edge">
<title>DashboardComponent&#45;&gt;AppModule</title>
<path fill="none" stroke="#000000" d="M5103,-122.1554C5103,-144.3519 5103,-179 5103,-179 5103,-179 2796.677,-179 2796.677,-179"/>
<polygon fill="#000000" stroke="#000000" points="2796.677,-175.5001 2786.677,-179 2796.677,-182.5001 2796.677,-175.5001"/>
</g>
<!-- DevelopersListComponent -->
<g id="node5" class="node">
<title>DevelopersListComponent</title>
<polygon fill="#ffffb3" stroke="#000000" points="5014.3571,-122 4847.6429,-122 4847.6429,-86 5014.3571,-86 5014.3571,-122"/>
<text text-anchor="middle" x="4931" y="-99.8" font-family="Times,serif" font-size="14.00" fill="#000000">DevelopersListComponent</text>
</g>
<!-- DevelopersListComponent&#45;&gt;AppModule -->
<g id="edge5" class="edge">
<title>DevelopersListComponent&#45;&gt;AppModule</title>
<path fill="none" stroke="#000000" d="M4931,-122.0449C4931,-143.6623 4931,-177 4931,-177 4931,-177 2796.7163,-177 2796.7163,-177"/>
<polygon fill="#000000" stroke="#000000" points="2796.7163,-173.5001 2786.7163,-177 2796.7162,-180.5001 2796.7163,-173.5001"/>
</g>
<!-- DonationsMobileViewComponent -->
<g id="node6" class="node">
<title>DonationsMobileViewComponent</title>
<polygon fill="#ffffb3" stroke="#000000" points="4829.6385,-122 4620.3615,-122 4620.3615,-86 4829.6385,-86 4829.6385,-122"/>
<text text-anchor="middle" x="4725" y="-99.8" font-family="Times,serif" font-size="14.00" fill="#000000">DonationsMobileViewComponent</text>
</g>
<!-- DonationsMobileViewComponent&#45;&gt;AppModule -->
<g id="edge6" class="edge">
<title>DonationsMobileViewComponent&#45;&gt;AppModule</title>
<path fill="none" stroke="#000000" d="M4725,-122.2843C4725,-143.3211 4725,-175 4725,-175 4725,-175 2796.812,-175 2796.812,-175"/>
<polygon fill="#000000" stroke="#000000" points="2796.812,-171.5001 2786.812,-175 2796.8119,-178.5001 2796.812,-171.5001"/>
</g>
<!-- EditEducationComponent -->
<g id="node7" class="node">
<title>EditEducationComponent</title>
<polygon fill="#ffffb3" stroke="#000000" points="4601.9298,-122 4440.0702,-122 4440.0702,-86 4601.9298,-86 4601.9298,-122"/>
<text text-anchor="middle" x="4521" y="-99.8" font-family="Times,serif" font-size="14.00" fill="#000000">EditEducationComponent</text>
</g>
<!-- EditEducationComponent&#45;&gt;AppModule -->
<g id="edge7" class="edge">
<title>EditEducationComponent&#45;&gt;AppModule</title>
<path fill="none" stroke="#000000" d="M4521,-122.1289C4521,-142.5724 4521,-173 4521,-173 4521,-173 2796.7169,-173 2796.7169,-173"/>
<polygon fill="#000000" stroke="#000000" points="2796.7169,-169.5001 2786.7169,-173 2796.7169,-176.5001 2796.7169,-169.5001"/>
</g>
<!-- EditExperienceComponent -->
<g id="node8" class="node">
<title>EditExperienceComponent</title>
<polygon fill="#ffffb3" stroke="#000000" points="4421.6288,-122 4254.3712,-122 4254.3712,-86 4421.6288,-86 4421.6288,-122"/>
<text text-anchor="middle" x="4338" y="-99.8" font-family="Times,serif" font-size="14.00" fill="#000000">EditExperienceComponent</text>
</g>
<!-- EditExperienceComponent&#45;&gt;AppModule -->
<g id="edge8" class="edge">
<title>EditExperienceComponent&#45;&gt;AppModule</title>
<path fill="none" stroke="#000000" d="M4338,-122.308C4338,-142.1455 4338,-171 4338,-171 4338,-171 2796.7901,-171 2796.7901,-171"/>
<polygon fill="#000000" stroke="#000000" points="2796.7901,-167.5001 2786.7901,-171 2796.79,-174.5001 2796.7901,-167.5001"/>
</g>
<!-- EditProfileComponent -->
<g id="node9" class="node">
<title>EditProfileComponent</title>
<polygon fill="#ffffb3" stroke="#000000" points="4236.266,-122 4093.734,-122 4093.734,-86 4236.266,-86 4236.266,-122"/>
<text text-anchor="middle" x="4165" y="-99.8" font-family="Times,serif" font-size="14.00" fill="#000000">EditProfileComponent</text>
</g>
<!-- EditProfileComponent&#45;&gt;AppModule -->
<g id="edge9" class="edge">
<title>EditProfileComponent&#45;&gt;AppModule</title>
<path fill="none" stroke="#000000" d="M4165,-122.1061C4165,-141.3391 4165,-169 4165,-169 4165,-169 2796.7289,-169 2796.7289,-169"/>
<polygon fill="#000000" stroke="#000000" points="2796.7289,-165.5001 2786.7289,-169 2796.7288,-172.5001 2796.7289,-165.5001"/>
</g>
<!-- EducationComponent -->
<g id="node10" class="node">
<title>EducationComponent</title>
<polygon fill="#ffffb3" stroke="#000000" points="4076.0954,-122 3937.9046,-122 3937.9046,-86 4076.0954,-86 4076.0954,-122"/>
<text text-anchor="middle" x="4007" y="-99.8" font-family="Times,serif" font-size="14.00" fill="#000000">EducationComponent</text>
</g>
<!-- EducationComponent&#45;&gt;AppModule -->
<g id="edge10" class="edge">
<title>EducationComponent&#45;&gt;AppModule</title>
<path fill="none" stroke="#000000" d="M4007,-122.2222C4007,-140.8285 4007,-167 4007,-167 4007,-167 2796.989,-167 2796.989,-167"/>
<polygon fill="#000000" stroke="#000000" points="2796.989,-163.5001 2786.989,-167 2796.989,-170.5001 2796.989,-163.5001"/>
</g>
<!-- EducationMobileViewComponent -->
<g id="node11" class="node">
<title>EducationMobileViewComponent</title>
<polygon fill="#ffffb3" stroke="#000000" points="3920.3543,-122 3711.6457,-122 3711.6457,-86 3920.3543,-86 3920.3543,-122"/>
<text text-anchor="middle" x="3816" y="-99.8" font-family="Times,serif" font-size="14.00" fill="#000000">EducationMobileViewComponent</text>
</g>
<!-- EducationMobileViewComponent&#45;&gt;AppModule -->
<g id="edge11" class="edge">
<title>EducationMobileViewComponent&#45;&gt;AppModule</title>
<path fill="none" stroke="#000000" d="M3816,-122.302C3816,-140.2699 3816,-165 3816,-165 3816,-165 2796.9845,-165 2796.9845,-165"/>
<polygon fill="#000000" stroke="#000000" points="2796.9845,-161.5001 2786.9845,-165 2796.9844,-168.5001 2796.9845,-161.5001"/>
</g>
<!-- ExperienceComponent -->
<g id="node12" class="node">
<title>ExperienceComponent</title>
<polygon fill="#ffffb3" stroke="#000000" points="3693.2949,-122 3548.7051,-122 3548.7051,-86 3693.2949,-86 3693.2949,-122"/>
<text text-anchor="middle" x="3621" y="-99.8" font-family="Times,serif" font-size="14.00" fill="#000000">ExperienceComponent</text>
</g>
<!-- ExperienceComponent&#45;&gt;AppModule -->
<g id="edge12" class="edge">
<title>ExperienceComponent&#45;&gt;AppModule</title>
<path fill="none" stroke="#000000" d="M3621,-122.0225C3621,-139.3734 3621,-163 3621,-163 3621,-163 2796.662,-163 2796.662,-163"/>
<polygon fill="#000000" stroke="#000000" points="2796.662,-159.5001 2786.662,-163 2796.6619,-166.5001 2796.662,-159.5001"/>
</g>
<!-- ExperienceMobileViewComponent -->
<g id="node13" class="node">
<title>ExperienceMobileViewComponent</title>
<polygon fill="#ffffb3" stroke="#000000" points="3530.5534,-122 3315.4466,-122 3315.4466,-86 3530.5534,-86 3530.5534,-122"/>
<text text-anchor="middle" x="3423" y="-99.8" font-family="Times,serif" font-size="14.00" fill="#000000">ExperienceMobileViewComponent</text>
</g>
<!-- ExperienceMobileViewComponent&#45;&gt;AppModule -->
<g id="edge13" class="edge">
<title>ExperienceMobileViewComponent&#45;&gt;AppModule</title>
<path fill="none" stroke="#000000" d="M3423,-122.0352C3423,-138.7344 3423,-161 3423,-161 3423,-161 2796.9003,-161 2796.9003,-161"/>
<polygon fill="#000000" stroke="#000000" points="2796.9003,-157.5001 2786.9003,-161 2796.9002,-164.5001 2796.9003,-157.5001"/>
</g>
<!-- FabComponent -->
<g id="node14" class="node">
<title>FabComponent</title>
<polygon fill="#ffffb3" stroke="#000000" points="3297.3301,-122 3194.6699,-122 3194.6699,-86 3297.3301,-86 3297.3301,-122"/>
<text text-anchor="middle" x="3246" y="-99.8" font-family="Times,serif" font-size="14.00" fill="#000000">FabComponent</text>
</g>
<!-- FabComponent&#45;&gt;AppModule -->
<g id="edge14" class="edge">
<title>FabComponent&#45;&gt;AppModule</title>
<path fill="none" stroke="#000000" d="M3246,-122.0091C3246,-138.0494 3246,-159 3246,-159 3246,-159 2796.8533,-159 2796.8533,-159"/>
<polygon fill="#000000" stroke="#000000" points="2796.8533,-155.5001 2786.8533,-159 2796.8532,-162.5001 2796.8533,-155.5001"/>
</g>
<!-- FakeGithubPage -->
<g id="node15" class="node">
<title>FakeGithubPage</title>
<polygon fill="#ffffb3" stroke="#000000" points="3176.8118,-122 3067.1882,-122 3067.1882,-86 3176.8118,-86 3176.8118,-122"/>
<text text-anchor="middle" x="3122" y="-99.8" font-family="Times,serif" font-size="14.00" fill="#000000">FakeGithubPage</text>
</g>
<!-- FakeGithubPage&#45;&gt;AppModule -->
<g id="edge15" class="edge">
<title>FakeGithubPage&#45;&gt;AppModule</title>
<path fill="none" stroke="#000000" d="M3122,-122.2396C3122,-137.5706 3122,-157 3122,-157 3122,-157 2796.786,-157 2796.786,-157"/>
<polygon fill="#000000" stroke="#000000" points="2796.7861,-153.5001 2786.786,-157 2796.786,-160.5001 2796.7861,-153.5001"/>
</g>
<!-- GithubComponent -->
<g id="node16" class="node">
<title>GithubComponent</title>
<polygon fill="#ffffb3" stroke="#000000" points="3049.2204,-122 2928.7796,-122 2928.7796,-86 3049.2204,-86 3049.2204,-122"/>
<text text-anchor="middle" x="2989" y="-99.8" font-family="Times,serif" font-size="14.00" fill="#000000">GithubComponent</text>
</g>
<!-- GithubComponent&#45;&gt;AppModule -->
<g id="edge16" class="edge">
<title>GithubComponent&#45;&gt;AppModule</title>
<path fill="none" stroke="#000000" d="M2989,-122.1243C2989,-136.7832 2989,-155 2989,-155 2989,-155 2796.6679,-155 2796.6679,-155"/>
<polygon fill="#000000" stroke="#000000" points="2796.6679,-151.5001 2786.6679,-155 2796.6678,-158.5001 2796.6679,-151.5001"/>
</g>
<!-- HomePage -->
<g id="node17" class="node">
<title>HomePage</title>
<polygon fill="#ffffb3" stroke="#000000" points="2910.9248,-122 2833.0752,-122 2833.0752,-86 2910.9248,-86 2910.9248,-122"/>
<text text-anchor="middle" x="2872" y="-99.8" font-family="Times,serif" font-size="14.00" fill="#000000">HomePage</text>
</g>
<!-- HomePage&#45;&gt;AppModule -->
<g id="edge17" class="edge">
<title>HomePage&#45;&gt;AppModule</title>
<path fill="none" stroke="#000000" d="M2872,-122.2458C2872,-136.1772 2872,-153 2872,-153 2872,-153 2796.9365,-153 2796.9365,-153"/>
<polygon fill="#000000" stroke="#000000" points="2796.9366,-149.5001 2786.9365,-153 2796.9365,-156.5001 2796.9366,-149.5001"/>
</g>
<!-- InfoModalComponent -->
<g id="node18" class="node">
<title>InfoModalComponent</title>
<polygon fill="#ffffb3" stroke="#000000" points="2815.7035,-122 2674.2965,-122 2674.2965,-86 2815.7035,-86 2815.7035,-122"/>
<text text-anchor="middle" x="2745" y="-99.8" font-family="Times,serif" font-size="14.00" fill="#000000">InfoModalComponent</text>
</g>
<!-- InfoModalComponent&#45;&gt;AppModule -->
<g id="edge18" class="edge">
<title>InfoModalComponent&#45;&gt;AppModule</title>
<path fill="none" stroke="#000000" d="M2745,-122.1061C2745,-122.1061 2745,-140.991 2745,-140.991"/>
<polygon fill="#000000" stroke="#000000" points="2741.5001,-140.9909 2745,-150.991 2748.5001,-140.991 2741.5001,-140.9909"/>
</g>
<!-- LoginComponent -->
<g id="node19" class="node">
<title>LoginComponent</title>
<polygon fill="#ffffb3" stroke="#000000" points="2656.2758,-122 2541.7242,-122 2541.7242,-86 2656.2758,-86 2656.2758,-122"/>
<text text-anchor="middle" x="2599" y="-99.8" font-family="Times,serif" font-size="14.00" fill="#000000">LoginComponent</text>
</g>
<!-- LoginComponent&#45;&gt;AppModule -->
<g id="edge19" class="edge">
<title>LoginComponent&#45;&gt;AppModule</title>
<path fill="none" stroke="#000000" d="M2599,-122.2458C2599,-136.1772 2599,-153 2599,-153 2599,-153 2693.1623,-153 2693.1623,-153"/>
<polygon fill="#000000" stroke="#000000" points="2693.1623,-156.5001 2703.1623,-153 2693.1622,-149.5001 2693.1623,-156.5001"/>
</g>
<!-- NavbarComponent -->
<g id="node20" class="node">
<title>NavbarComponent</title>
<polygon fill="#ffffb3" stroke="#000000" points="2523.0297,-122 2400.9703,-122 2400.9703,-86 2523.0297,-86 2523.0297,-122"/>
<text text-anchor="middle" x="2462" y="-99.8" font-family="Times,serif" font-size="14.00" fill="#000000">NavbarComponent</text>
</g>
<!-- NavbarComponent&#45;&gt;AppModule -->
<g id="edge20" class="edge">
<title>NavbarComponent&#45;&gt;AppModule</title>
<path fill="none" stroke="#000000" d="M2462,-122.1243C2462,-136.7832 2462,-155 2462,-155 2462,-155 2693.2424,-155 2693.2424,-155"/>
<polygon fill="#000000" stroke="#000000" points="2693.2424,-158.5001 2703.2424,-155 2693.2423,-151.5001 2693.2424,-158.5001"/>
</g>
<!-- ProfileComponent -->
<g id="node21" class="node">
<title>ProfileComponent</title>
<polygon fill="#ffffb3" stroke="#000000" points="2382.9328,-122 2263.0672,-122 2263.0672,-86 2382.9328,-86 2382.9328,-122"/>
<text text-anchor="middle" x="2323" y="-99.8" font-family="Times,serif" font-size="14.00" fill="#000000">ProfileComponent</text>
</g>
<!-- ProfileComponent&#45;&gt;AppModule -->
<g id="edge21" class="edge">
<title>ProfileComponent&#45;&gt;AppModule</title>
<path fill="none" stroke="#000000" d="M2323,-122.2396C2323,-137.5706 2323,-157 2323,-157 2323,-157 2692.9942,-157 2692.9942,-157"/>
<polygon fill="#000000" stroke="#000000" points="2692.9943,-160.5001 2702.9942,-157 2692.9942,-153.5001 2692.9943,-160.5001"/>
</g>
<!-- SectionsComponent -->
<g id="node22" class="node">
<title>SectionsComponent</title>
<polygon fill="#ffffb3" stroke="#000000" points="2245.2702,-122 2116.7298,-122 2116.7298,-86 2245.2702,-86 2245.2702,-122"/>
<text text-anchor="middle" x="2181" y="-99.8" font-family="Times,serif" font-size="14.00" fill="#000000">SectionsComponent</text>
</g>
<!-- SectionsComponent&#45;&gt;AppModule -->
<g id="edge22" class="edge">
<title>SectionsComponent&#45;&gt;AppModule</title>
<path fill="none" stroke="#000000" d="M2181,-122.0091C2181,-138.0494 2181,-159 2181,-159 2181,-159 2693.0691,-159 2693.0691,-159"/>
<polygon fill="#000000" stroke="#000000" points="2693.0691,-162.5001 2703.0691,-159 2693.0691,-155.5001 2693.0691,-162.5001"/>
</g>
<!-- SessionExpiredComponent -->
<g id="node23" class="node">
<title>SessionExpiredComponent</title>
<polygon fill="#ffffb3" stroke="#000000" points="2098.4283,-122 1929.5717,-122 1929.5717,-86 2098.4283,-86 2098.4283,-122"/>
<text text-anchor="middle" x="2014" y="-99.8" font-family="Times,serif" font-size="14.00" fill="#000000">SessionExpiredComponent</text>
</g>
<!-- SessionExpiredComponent&#45;&gt;AppModule -->
<g id="edge23" class="edge">
<title>SessionExpiredComponent&#45;&gt;AppModule</title>
<path fill="none" stroke="#000000" d="M2014,-122.0352C2014,-138.7344 2014,-161 2014,-161 2014,-161 2693.3386,-161 2693.3386,-161"/>
<polygon fill="#000000" stroke="#000000" points="2693.3387,-164.5001 2703.3386,-161 2693.3386,-157.5001 2693.3387,-164.5001"/>
</g>
<!-- SessionExpiredPage -->
<g id="node24" class="node">
<title>SessionExpiredPage</title>
<polygon fill="#ffffb3" stroke="#000000" points="1912.3076,-122 1781.6924,-122 1781.6924,-86 1912.3076,-86 1912.3076,-122"/>
<text text-anchor="middle" x="1847" y="-99.8" font-family="Times,serif" font-size="14.00" fill="#000000">SessionExpiredPage</text>
</g>
<!-- SessionExpiredPage&#45;&gt;AppModule -->
<g id="edge24" class="edge">
<title>SessionExpiredPage&#45;&gt;AppModule</title>
<path fill="none" stroke="#000000" d="M1847,-122.0225C1847,-139.3734 1847,-163 1847,-163 1847,-163 2693.1908,-163 2693.1908,-163"/>
<polygon fill="#000000" stroke="#000000" points="2693.1908,-166.5001 2703.1908,-163 2693.1908,-159.5001 2693.1908,-166.5001"/>
</g>
<!-- SignupComponent -->
<g id="node25" class="node">
<title>SignupComponent</title>
<polygon fill="#ffffb3" stroke="#000000" points="1763.5056,-122 1642.4944,-122 1642.4944,-86 1763.5056,-86 1763.5056,-122"/>
<text text-anchor="middle" x="1703" y="-99.8" font-family="Times,serif" font-size="14.00" fill="#000000">SignupComponent</text>
</g>
<!-- SignupComponent&#45;&gt;AppModule -->
<g id="edge25" class="edge">
<title>SignupComponent&#45;&gt;AppModule</title>
<path fill="none" stroke="#000000" d="M1703,-122.302C1703,-140.2699 1703,-165 1703,-165 1703,-165 2693.1861,-165 2693.1861,-165"/>
<polygon fill="#000000" stroke="#000000" points="2693.1862,-168.5001 2703.1861,-165 2693.1861,-161.5001 2693.1862,-168.5001"/>
</g>
<!-- SkillsComponent -->
<g id="node26" class="node">
<title>SkillsComponent</title>
<polygon fill="#ffffb3" stroke="#000000" points="1624.7316,-122 1511.2684,-122 1511.2684,-86 1624.7316,-86 1624.7316,-122"/>
<text text-anchor="middle" x="1568" y="-99.8" font-family="Times,serif" font-size="14.00" fill="#000000">SkillsComponent</text>
</g>
<!-- SkillsComponent&#45;&gt;AppModule -->
<g id="edge26" class="edge">
<title>SkillsComponent&#45;&gt;AppModule</title>
<path fill="none" stroke="#000000" d="M1568,-122.2222C1568,-140.8285 1568,-167 1568,-167 1568,-167 2693.1099,-167 2693.1099,-167"/>
<polygon fill="#000000" stroke="#000000" points="2693.11,-170.5001 2703.1099,-167 2693.1099,-163.5001 2693.11,-170.5001"/>
</g>
<!-- SocialIconsComponent -->
<g id="node27" class="node">
<title>SocialIconsComponent</title>
<polygon fill="#ffffb3" stroke="#000000" points="1493.1456,-122 1346.8544,-122 1346.8544,-86 1493.1456,-86 1493.1456,-122"/>
<text text-anchor="middle" x="1420" y="-99.8" font-family="Times,serif" font-size="14.00" fill="#000000">SocialIconsComponent</text>
</g>
<!-- SocialIconsComponent&#45;&gt;AppModule -->
<g id="edge27" class="edge">
<title>SocialIconsComponent&#45;&gt;AppModule</title>
<path fill="none" stroke="#000000" d="M1420,-122.1061C1420,-141.3391 1420,-169 1420,-169 1420,-169 2693.157,-169 2693.157,-169"/>
<polygon fill="#000000" stroke="#000000" points="2693.157,-172.5001 2703.157,-169 2693.1569,-165.5001 2693.157,-172.5001"/>
</g>
<!-- SupporterModalComponent -->
<g id="node28" class="node">
<title>SupporterModalComponent</title>
<polygon fill="#ffffb3" stroke="#000000" points="1328.5912,-122 1155.4088,-122 1155.4088,-86 1328.5912,-86 1328.5912,-122"/>
<text text-anchor="middle" x="1242" y="-99.8" font-family="Times,serif" font-size="14.00" fill="#000000">SupporterModalComponent</text>
</g>
<!-- SupporterModalComponent&#45;&gt;AppModule -->
<g id="edge28" class="edge">
<title>SupporterModalComponent&#45;&gt;AppModule</title>
<path fill="none" stroke="#000000" d="M1242,-122.308C1242,-142.1455 1242,-171 1242,-171 1242,-171 2693.2325,-171 2693.2325,-171"/>
<polygon fill="#000000" stroke="#000000" points="2693.2325,-174.5001 2703.2325,-171 2693.2325,-167.5001 2693.2325,-174.5001"/>
</g>
<!-- TestimonialsComponent -->
<g id="node29" class="node">
<title>TestimonialsComponent</title>
<polygon fill="#ffffb3" stroke="#000000" points="1137.6568,-122 984.3432,-122 984.3432,-86 1137.6568,-86 1137.6568,-122"/>
<text text-anchor="middle" x="1061" y="-99.8" font-family="Times,serif" font-size="14.00" fill="#000000">TestimonialsComponent</text>
</g>
<!-- TestimonialsComponent&#45;&gt;AppModule -->
<g id="edge29" class="edge">
<title>TestimonialsComponent&#45;&gt;AppModule</title>
<path fill="none" stroke="#000000" d="M1061,-122.1289C1061,-142.5724 1061,-173 1061,-173 1061,-173 2692.9527,-173 2692.9527,-173"/>
<polygon fill="#000000" stroke="#000000" points="2692.9527,-176.5001 2702.9527,-173 2692.9526,-169.5001 2692.9527,-176.5001"/>
</g>
<!-- ThankYouModalComponent -->
<g id="node30" class="node">
<title>ThankYouModalComponent</title>
<polygon fill="#ffffb3" stroke="#000000" points="965.7562,-122 788.2438,-122 788.2438,-86 965.7562,-86 965.7562,-122"/>
<text text-anchor="middle" x="877" y="-99.8" font-family="Times,serif" font-size="14.00" fill="#000000">ThankYouModalComponent</text>
</g>
<!-- ThankYouModalComponent&#45;&gt;AppModule -->
<g id="edge30" class="edge">
<title>ThankYouModalComponent&#45;&gt;AppModule</title>
<path fill="none" stroke="#000000" d="M877,-122.2843C877,-143.3211 877,-175 877,-175 877,-175 2692.9209,-175 2692.9209,-175"/>
<polygon fill="#000000" stroke="#000000" points="2692.9209,-178.5001 2702.9209,-175 2692.9208,-171.5001 2692.9209,-178.5001"/>
</g>
<!-- AppComponent  -->
<g id="node33" class="node">
<title>AppComponent </title>
<polygon fill="#80b1d3" stroke="#000000" points="2799.439,-252 2690.561,-252 2690.561,-216 2799.439,-216 2799.439,-252"/>
<text text-anchor="middle" x="2745" y="-229.8" font-family="Times,serif" font-size="14.00" fill="#000000">AppComponent </text>
</g>
<!-- AppModule&#45;&gt;AppComponent  -->
<g id="edge32" class="edge">
<title>AppModule&#45;&gt;AppComponent </title>
<path fill="none" stroke="#000000" stroke-dasharray="1,5" d="M2745,-187.1061C2745,-187.1061 2745,-205.991 2745,-205.991"/>
<polygon fill="#000000" stroke="#000000" points="2741.5001,-205.9909 2745,-215.991 2748.5001,-205.991 2741.5001,-205.9909"/>
</g>
<!-- AppRoutingModule -->
<g id="node32" class="node">
<title>AppRoutingModule</title>
<polygon fill="#8dd3c7" stroke="#000000" points="764.2744,-122 761.2744,-126 740.2744,-126 737.2744,-122 635.7256,-122 635.7256,-86 764.2744,-86 764.2744,-122"/>
<text text-anchor="middle" x="700" y="-99.8" font-family="Times,serif" font-size="14.00" fill="#000000">AppRoutingModule</text>
</g>
<!-- AppRoutingModule&#45;&gt;AppModule -->
<g id="edge31" class="edge">
<title>AppRoutingModule&#45;&gt;AppModule</title>
<path fill="none" stroke="#000000" d="M700,-122.0449C700,-143.6623 700,-177 700,-177 700,-177 2693.2237,-177 2693.2237,-177"/>
<polygon fill="#000000" stroke="#000000" points="2693.2237,-180.5001 2703.2237,-177 2693.2236,-173.5001 2693.2237,-180.5001"/>
</g>
<!-- AuthService -->
<g id="node34" class="node">
<title>AuthService</title>
<ellipse fill="#fdb462" stroke="#000000" cx="553" cy="-104" rx="59.1083" ry="18"/>
<text text-anchor="middle" x="553" y="-99.8" font-family="Times,serif" font-size="14.00" fill="#000000">AuthService</text>
</g>
<!-- AuthService&#45;&gt;AppModule -->
<g id="edge33" class="edge">
<title>AuthService&#45;&gt;AppModule</title>
<path fill="none" stroke="#000000" d="M553,-122.1554C553,-144.3519 553,-179 553,-179 553,-179 2693.1692,-179 2693.1692,-179"/>
<polygon fill="#000000" stroke="#000000" points="2693.1693,-182.5001 2703.1692,-179 2693.1692,-175.5001 2693.1693,-182.5001"/>
</g>
<!-- FakeService -->
<g id="node35" class="node">
<title>FakeService</title>
<ellipse fill="#fdb462" stroke="#000000" cx="417" cy="-104" rx="58.5251" ry="18"/>
<text text-anchor="middle" x="417" y="-99.8" font-family="Times,serif" font-size="14.00" fill="#000000">FakeService</text>
</g>
<!-- FakeService&#45;&gt;AppModule -->
<g id="edge34" class="edge">
<title>FakeService&#45;&gt;AppModule</title>
<path fill="none" stroke="#000000" d="M417,-122.2479C417,-145.0179 417,-181 417,-181 417,-181 2693.1069,-181 2693.1069,-181"/>
<polygon fill="#000000" stroke="#000000" points="2693.107,-184.5001 2703.1069,-181 2693.1069,-177.5001 2693.107,-184.5001"/>
</g>
<!-- GithubService -->
<g id="node36" class="node">
<title>GithubService</title>
<ellipse fill="#fdb462" stroke="#000000" cx="273" cy="-104" rx="66.6325" ry="18"/>
<text text-anchor="middle" x="273" y="-99.8" font-family="Times,serif" font-size="14.00" fill="#000000">GithubService</text>
</g>
<!-- GithubService&#45;&gt;AppModule -->
<g id="edge35" class="edge">
<title>GithubService&#45;&gt;AppModule</title>
<path fill="none" stroke="#000000" d="M273,-122.3228C273,-145.6602 273,-183 273,-183 273,-183 2693.131,-183 2693.131,-183"/>
<polygon fill="#000000" stroke="#000000" points="2693.1311,-186.5001 2703.131,-183 2693.131,-179.5001 2693.1311,-186.5001"/>
</g>
<!-- HomePageService -->
<g id="node37" class="node">
<title>HomePageService</title>
<ellipse fill="#fdb462" stroke="#000000" cx="106" cy="-104" rx="82.2218" ry="18"/>
<text text-anchor="middle" x="106" y="-99.8" font-family="Times,serif" font-size="14.00" fill="#000000">HomePageService</text>
</g>
<!-- HomePageService&#45;&gt;AppModule -->
<g id="edge36" class="edge">
<title>HomePageService&#45;&gt;AppModule</title>
<path fill="none" stroke="#000000" d="M106,-122.3802C106,-146.2785 106,-185 106,-185 106,-185 2693.2816,-185 2693.2816,-185"/>
<polygon fill="#000000" stroke="#000000" points="2693.2816,-188.5001 2703.2816,-185 2693.2816,-181.5001 2693.2816,-188.5001"/>
</g>
</g>
</svg>
