<svg xmlns="http://www.w3.org/2000/svg" xmlns:xlink="http://www.w3.org/1999/xlink" width="5696pt" height="284pt" viewBox="0 0 5696 284"><g id="graph0" class="graph" transform="scale(1 1) rotate(0) translate(4 280)"><title>dependencies</title><polygon fill="#fff" stroke="transparent" points="-4 4 -4 -280 5692 -280 5692 4 -4 4"/><text x="2823.009" y="-42.4" fill="#000" font-family="sans-serif" font-size="14" font-weight="bold" text-anchor="start">Legend</text><polygon fill="#ffffb3" stroke="transparent" points="2610 -10 2610 -30 2630 -30 2630 -10 2610 -10"/><text x="2633.629" y="-15.4" fill="#000" font-family="sans-serif" font-size="14" text-anchor="start">Declarations</text><polygon fill="#8dd3c7" stroke="transparent" points="2723 -10 2723 -30 2743 -30 2743 -10 2723 -10"/><text x="2746.725" y="-15.4" fill="#000" font-family="sans-serif" font-size="14" text-anchor="start">Module</text><polygon fill="#80b1d3" stroke="transparent" points="2809 -10 2809 -30 2829 -30 2829 -10 2809 -10"/><text x="2832.781" y="-15.4" fill="#000" font-family="sans-serif" font-size="14" text-anchor="start">Bootstrap</text><polygon fill="#fdb462" stroke="transparent" points="2906 -10 2906 -30 2926 -30 2926 -10 2906 -10"/><text x="2929.673" y="-15.4" fill="#000" font-family="sans-serif" font-size="14" text-anchor="start">Providers</text><polygon fill="#fb8072" stroke="transparent" points="3002 -10 3002 -30 3022 -30 3022 -10 3002 -10"/><text x="3025.726" y="-15.4" fill="#000" font-family="sans-serif" font-size="14" text-anchor="start">Exports</text><g id="clust1" class="cluster"><title>cluster_AppModule</title><polygon fill="none" stroke="#000" stroke-dasharray="1 5" points="8 -70 8 -268 5680 -268 5680 -70 8 -70"/></g><g id="clust2" class="cluster"><title>cluster_AppModule_declarations</title><polygon fill="none" stroke="#000" points="780 -78 780 -130 5672 -130 5672 -78 780 -78"/></g><g id="clust33" class="cluster"><title>cluster_AppModule_imports</title><polygon fill="none" stroke="#000" points="628 -78 628 -130 772 -130 772 -78 628 -78"/></g><g id="clust35" class="cluster"><title>cluster_AppModule_bootstrap</title><polygon fill="none" stroke="#000" points="2683 -208 2683 -260 2807 -260 2807 -208 2683 -208"/></g><g id="clust36" class="cluster"><title>cluster_AppModule_providers</title><polygon fill="none" stroke="#000" points="16 -78 16 -130 620 -130 620 -78 16 -78"/></g><g id="node1" class="node"><title>AddEducationComponent</title><polygon fill="#ffffb3" stroke="#000" points="5664.202 -122 5501.798 -122 5501.798 -86 5664.202 -86 5664.202 -122"/><text x="5583" y="-99.8" fill="#000" font-family="Times,serif" font-size="14" text-anchor="middle">AddEducationComponent</text></g><g id="node31" class="node"><title>AppModule</title><polygon fill="#8dd3c7" stroke="#000" points="2786.657 -187 2783.657 -191 2762.657 -191 2759.657 -187 2703.343 -187 2703.343 -151 2786.657 -151 2786.657 -187"/><text x="2745" y="-164.8" fill="#000" font-family="Times,serif" font-size="14" text-anchor="middle">AppModule</text></g><g id="edge1" class="edge"><title>AddEducationComponent-&gt;AppModule</title><path fill="none" stroke="#000" d="M5583,-122.3802C5583,-146.2785 5583,-185 5583,-185 5583,-185 2796.7651,-185 2796.7651,-185"/><polygon fill="#000" stroke="#000" points="2796.765 -181.5 2786.765 -185 2796.765 -188.5 2796.765 -181.5"/></g><g id="node2" class="node"><title>AddExperienceComponent</title><polygon fill="#ffffb3" stroke="#000" points="5484.402 -122 5315.598 -122 5315.598 -86 5484.402 -86 5484.402 -122"/><text x="5400" y="-99.8" fill="#000" font-family="Times,serif" font-size="14" text-anchor="middle">AddExperienceComponent</text></g><g id="edge2" class="edge"><title>AddExperienceComponent-&gt;AppModule</title><path fill="none" stroke="#000" d="M5400,-122.3228C5400,-145.6602 5400,-183 5400,-183 5400,-183 2796.7037,-183 2796.7037,-183"/><polygon fill="#000" stroke="#000" points="2796.704 -179.5 2786.704 -183 2796.704 -186.5 2796.704 -179.5"/></g><g id="node3" class="node"><title>AppComponent</title><polygon fill="#ffffb3" stroke="#000" points="5297.94 -122 5192.06 -122 5192.06 -86 5297.94 -86 5297.94 -122"/><text x="5245" y="-99.8" fill="#000" font-family="Times,serif" font-size="14" text-anchor="middle">AppComponent</text></g><g id="edge3" class="edge"><title>AppComponent-&gt;AppModule</title><path fill="none" stroke="#000" d="M5245,-122.2479C5245,-145.0179 5245,-181 5245,-181 5245,-181 2796.8233,-181 2796.8233,-181"/><polygon fill="#000" stroke="#000" points="2796.823 -177.5 2786.823 -181 2796.823 -184.5 2796.823 -177.5"/></g><g id="node4" class="node"><title>DashboardComponent</title><polygon fill="#ffffb3" stroke="#000" points="5173.973 -122 5032.027 -122 5032.027 -86 5173.973 -86 5173.973 -122"/><text x="5103" y="-99.8" fill="#000" font-family="Times,serif" font-size="14" text-anchor="middle">DashboardComponent</text></g><g id="edge4" class="edge"><title>DashboardComponent-&gt;AppModule</title><path fill="none" stroke="#000" d="M5103,-122.1554C5103,-144.3519 5103,-179 5103,-179 5103,-179 2796.677,-179 2796.677,-179"/><polygon fill="#000" stroke="#000" points="2796.677 -175.5 2786.677 -179 2796.677 -182.5 2796.677 -175.5"/></g><g id="node5" class="node"><title>DevelopersListComponent</title><polygon fill="#ffffb3" stroke="#000" points="5014.357 -122 4847.643 -122 4847.643 -86 5014.357 -86 5014.357 -122"/><text x="4931" y="-99.8" fill="#000" font-family="Times,serif" font-size="14" text-anchor="middle">DevelopersListComponent</text></g><g id="edge5" class="edge"><title>DevelopersListComponent-&gt;AppModule</title><path fill="none" stroke="#000" d="M4931,-122.0449C4931,-143.6623 4931,-177 4931,-177 4931,-177 2796.7163,-177 2796.7163,-177"/><polygon fill="#000" stroke="#000" points="2796.716 -173.5 2786.716 -177 2796.716 -180.5 2796.716 -173.5"/></g><g id="node6" class="node"><title>DonationsMobileViewComponent</title><polygon fill="#ffffb3" stroke="#000" points="4829.639 -122 4620.361 -122 4620.361 -86 4829.639 -86 4829.639 -122"/><text x="4725" y="-99.8" fill="#000" font-family="Times,serif" font-size="14" text-anchor="middle">DonationsMobileViewComponent</text></g><g id="edge6" class="edge"><title>DonationsMobileViewComponent-&gt;AppModule</title><path fill="none" stroke="#000" d="M4725,-122.2843C4725,-143.3211 4725,-175 4725,-175 4725,-175 2796.812,-175 2796.812,-175"/><polygon fill="#000" stroke="#000" points="2796.812 -171.5 2786.812 -175 2796.812 -178.5 2796.812 -171.5"/></g><g id="node7" class="node"><title>EditEducationComponent</title><polygon fill="#ffffb3" stroke="#000" points="4601.93 -122 4440.07 -122 4440.07 -86 4601.93 -86 4601.93 -122"/><text x="4521" y="-99.8" fill="#000" font-family="Times,serif" font-size="14" text-anchor="middle">EditEducationComponent</text></g><g id="edge7" class="edge"><title>EditEducationComponent-&gt;AppModule</title><path fill="none" stroke="#000" d="M4521,-122.1289C4521,-142.5724 4521,-173 4521,-173 4521,-173 2796.7169,-173 2796.7169,-173"/><polygon fill="#000" stroke="#000" points="2796.717 -169.5 2786.717 -173 2796.717 -176.5 2796.717 -169.5"/></g><g id="node8" class="node"><title>EditExperienceComponent</title><polygon fill="#ffffb3" stroke="#000" points="4421.629 -122 4254.371 -122 4254.371 -86 4421.629 -86 4421.629 -122"/><text x="4338" y="-99.8" fill="#000" font-family="Times,serif" font-size="14" text-anchor="middle">EditExperienceComponent</text></g><g id="edge8" class="edge"><title>EditExperienceComponent-&gt;AppModule</title><path fill="none" stroke="#000" d="M4338,-122.308C4338,-142.1455 4338,-171 4338,-171 4338,-171 2796.7901,-171 2796.7901,-171"/><polygon fill="#000" stroke="#000" points="2796.79 -167.5 2786.79 -171 2796.79 -174.5 2796.79 -167.5"/></g><g id="node9" class="node"><title>EditProfileComponent</title><polygon fill="#ffffb3" stroke="#000" points="4236.266 -122 4093.734 -122 4093.734 -86 4236.266 -86 4236.266 -122"/><text x="4165" y="-99.8" fill="#000" font-family="Times,serif" font-size="14" text-anchor="middle">EditProfileComponent</text></g><g id="edge9" class="edge"><title>EditProfileComponent-&gt;AppModule</title><path fill="none" stroke="#000" d="M4165,-122.1061C4165,-141.3391 4165,-169 4165,-169 4165,-169 2796.7289,-169 2796.7289,-169"/><polygon fill="#000" stroke="#000" points="2796.729 -165.5 2786.729 -169 2796.729 -172.5 2796.729 -165.5"/></g><g id="node10" class="node"><title>EducationComponent</title><polygon fill="#ffffb3" stroke="#000" points="4076.095 -122 3937.905 -122 3937.905 -86 4076.095 -86 4076.095 -122"/><text x="4007" y="-99.8" fill="#000" font-family="Times,serif" font-size="14" text-anchor="middle">EducationComponent</text></g><g id="edge10" class="edge"><title>EducationComponent-&gt;AppModule</title><path fill="none" stroke="#000" d="M4007,-122.2222C4007,-140.8285 4007,-167 4007,-167 4007,-167 2796.989,-167 2796.989,-167"/><polygon fill="#000" stroke="#000" points="2796.989 -163.5 2786.989 -167 2796.989 -170.5 2796.989 -163.5"/></g><g id="node11" class="node"><title>EducationMobileViewComponent</title><polygon fill="#ffffb3" stroke="#000" points="3920.354 -122 3711.646 -122 3711.646 -86 3920.354 -86 3920.354 -122"/><text x="3816" y="-99.8" fill="#000" font-family="Times,serif" font-size="14" text-anchor="middle">EducationMobileViewComponent</text></g><g id="edge11" class="edge"><title>EducationMobileViewComponent-&gt;AppModule</title><path fill="none" stroke="#000" d="M3816,-122.302C3816,-140.2699 3816,-165 3816,-165 3816,-165 2796.9845,-165 2796.9845,-165"/><polygon fill="#000" stroke="#000" points="2796.985 -161.5 2786.985 -165 2796.984 -168.5 2796.985 -161.5"/></g><g id="node12" class="node"><title>ExperienceComponent</title><polygon fill="#ffffb3" stroke="#000" points="3693.295 -122 3548.705 -122 3548.705 -86 3693.295 -86 3693.295 -122"/><text x="3621" y="-99.8" fill="#000" font-family="Times,serif" font-size="14" text-anchor="middle">ExperienceComponent</text></g><g id="edge12" class="edge"><title>ExperienceComponent-&gt;AppModule</title><path fill="none" stroke="#000" d="M3621,-122.0225C3621,-139.3734 3621,-163 3621,-163 3621,-163 2796.662,-163 2796.662,-163"/><polygon fill="#000" stroke="#000" points="2796.662 -159.5 2786.662 -163 2796.662 -166.5 2796.662 -159.5"/></g><g id="node13" class="node"><title>ExperienceMobileViewComponent</title><polygon fill="#ffffb3" stroke="#000" points="3530.553 -122 3315.447 -122 3315.447 -86 3530.553 -86 3530.553 -122"/><text x="3423" y="-99.8" fill="#000" font-family="Times,serif" font-size="14" text-anchor="middle">ExperienceMobileViewComponent</text></g><g id="edge13" class="edge"><title>ExperienceMobileViewComponent-&gt;AppModule</title><path fill="none" stroke="#000" d="M3423,-122.0352C3423,-138.7344 3423,-161 3423,-161 3423,-161 2796.9003,-161 2796.9003,-161"/><polygon fill="#000" stroke="#000" points="2796.9 -157.5 2786.9 -161 2796.9 -164.5 2796.9 -157.5"/></g><g id="node14" class="node"><title>FabComponent</title><polygon fill="#ffffb3" stroke="#000" points="3297.33 -122 3194.67 -122 3194.67 -86 3297.33 -86 3297.33 -122"/><text x="3246" y="-99.8" fill="#000" font-family="Times,serif" font-size="14" text-anchor="middle">FabComponent</text></g><g id="edge14" class="edge"><title>FabComponent-&gt;AppModule</title><path fill="none" stroke="#000" d="M3246,-122.0091C3246,-138.0494 3246,-159 3246,-159 3246,-159 2796.8533,-159 2796.8533,-159"/><polygon fill="#000" stroke="#000" points="2796.853 -155.5 2786.853 -159 2796.853 -162.5 2796.853 -155.5"/></g><g id="node15" class="node"><title>FakeGithubPage</title><polygon fill="#ffffb3" stroke="#000" points="3176.812 -122 3067.188 -122 3067.188 -86 3176.812 -86 3176.812 -122"/><text x="3122" y="-99.8" fill="#000" font-family="Times,serif" font-size="14" text-anchor="middle">FakeGithubPage</text></g><g id="edge15" class="edge"><title>FakeGithubPage-&gt;AppModule</title><path fill="none" stroke="#000" d="M3122,-122.2396C3122,-137.5706 3122,-157 3122,-157 3122,-157 2796.786,-157 2796.786,-157"/><polygon fill="#000" stroke="#000" points="2796.786 -153.5 2786.786 -157 2796.786 -160.5 2796.786 -153.5"/></g><g id="node16" class="node"><title>GithubComponent</title><polygon fill="#ffffb3" stroke="#000" points="3049.22 -122 2928.78 -122 2928.78 -86 3049.22 -86 3049.22 -122"/><text x="2989" y="-99.8" fill="#000" font-family="Times,serif" font-size="14" text-anchor="middle">GithubComponent</text></g><g id="edge16" class="edge"><title>GithubComponent-&gt;AppModule</title><path fill="none" stroke="#000" d="M2989,-122.1243C2989,-136.7832 2989,-155 2989,-155 2989,-155 2796.6679,-155 2796.6679,-155"/><polygon fill="#000" stroke="#000" points="2796.668 -151.5 2786.668 -155 2796.668 -158.5 2796.668 -151.5"/></g><g id="node17" class="node"><title>HomePage</title><polygon fill="#ffffb3" stroke="#000" points="2910.925 -122 2833.075 -122 2833.075 -86 2910.925 -86 2910.925 -122"/><text x="2872" y="-99.8" fill="#000" font-family="Times,serif" font-size="14" text-anchor="middle">HomePage</text></g><g id="edge17" class="edge"><title>HomePage-&gt;AppModule</title><path fill="none" stroke="#000" d="M2872,-122.2458C2872,-136.1772 2872,-153 2872,-153 2872,-153 2796.9365,-153 2796.9365,-153"/><polygon fill="#000" stroke="#000" points="2796.937 -149.5 2786.936 -153 2796.936 -156.5 2796.937 -149.5"/></g><g id="node18" class="node"><title>InfoModalComponent</title><polygon fill="#ffffb3" stroke="#000" points="2815.704 -122 2674.296 -122 2674.296 -86 2815.704 -86 2815.704 -122"/><text x="2745" y="-99.8" fill="#000" font-family="Times,serif" font-size="14" text-anchor="middle">InfoModalComponent</text></g><g id="edge18" class="edge"><title>InfoModalComponent-&gt;AppModule</title><path fill="none" stroke="#000" d="M2745,-122.1061C2745,-122.1061 2745,-140.991 2745,-140.991"/><polygon fill="#000" stroke="#000" points="2741.5 -140.991 2745 -150.991 2748.5 -140.991 2741.5 -140.991"/></g><g id="node19" class="node"><title>LoginComponent</title><polygon fill="#ffffb3" stroke="#000" points="2656.276 -122 2541.724 -122 2541.724 -86 2656.276 -86 2656.276 -122"/><text x="2599" y="-99.8" fill="#000" font-family="Times,serif" font-size="14" text-anchor="middle">LoginComponent</text></g><g id="edge19" class="edge"><title>LoginComponent-&gt;AppModule</title><path fill="none" stroke="#000" d="M2599,-122.2458C2599,-136.1772 2599,-153 2599,-153 2599,-153 2693.1623,-153 2693.1623,-153"/><polygon fill="#000" stroke="#000" points="2693.162 -156.5 2703.162 -153 2693.162 -149.5 2693.162 -156.5"/></g><g id="node20" class="node"><title>NavbarComponent</title><polygon fill="#ffffb3" stroke="#000" points="2523.03 -122 2400.97 -122 2400.97 -86 2523.03 -86 2523.03 -122"/><text x="2462" y="-99.8" fill="#000" font-family="Times,serif" font-size="14" text-anchor="middle">NavbarComponent</text></g><g id="edge20" class="edge"><title>NavbarComponent-&gt;AppModule</title><path fill="none" stroke="#000" d="M2462,-122.1243C2462,-136.7832 2462,-155 2462,-155 2462,-155 2693.2424,-155 2693.2424,-155"/><polygon fill="#000" stroke="#000" points="2693.242 -158.5 2703.242 -155 2693.242 -151.5 2693.242 -158.5"/></g><g id="node21" class="node"><title>ProfileComponent</title><polygon fill="#ffffb3" stroke="#000" points="2382.933 -122 2263.067 -122 2263.067 -86 2382.933 -86 2382.933 -122"/><text x="2323" y="-99.8" fill="#000" font-family="Times,serif" font-size="14" text-anchor="middle">ProfileComponent</text></g><g id="edge21" class="edge"><title>ProfileComponent-&gt;AppModule</title><path fill="none" stroke="#000" d="M2323,-122.2396C2323,-137.5706 2323,-157 2323,-157 2323,-157 2692.9942,-157 2692.9942,-157"/><polygon fill="#000" stroke="#000" points="2692.994 -160.5 2702.994 -157 2692.994 -153.5 2692.994 -160.5"/></g><g id="node22" class="node"><title>SectionsComponent</title><polygon fill="#ffffb3" stroke="#000" points="2245.27 -122 2116.73 -122 2116.73 -86 2245.27 -86 2245.27 -122"/><text x="2181" y="-99.8" fill="#000" font-family="Times,serif" font-size="14" text-anchor="middle">SectionsComponent</text></g><g id="edge22" class="edge"><title>SectionsComponent-&gt;AppModule</title><path fill="none" stroke="#000" d="M2181,-122.0091C2181,-138.0494 2181,-159 2181,-159 2181,-159 2693.0691,-159 2693.0691,-159"/><polygon fill="#000" stroke="#000" points="2693.069 -162.5 2703.069 -159 2693.069 -155.5 2693.069 -162.5"/></g><g id="node23" class="node"><title>SessionExpiredComponent</title><polygon fill="#ffffb3" stroke="#000" points="2098.428 -122 1929.572 -122 1929.572 -86 2098.428 -86 2098.428 -122"/><text x="2014" y="-99.8" fill="#000" font-family="Times,serif" font-size="14" text-anchor="middle">SessionExpiredComponent</text></g><g id="edge23" class="edge"><title>SessionExpiredComponent-&gt;AppModule</title><path fill="none" stroke="#000" d="M2014,-122.0352C2014,-138.7344 2014,-161 2014,-161 2014,-161 2693.3386,-161 2693.3386,-161"/><polygon fill="#000" stroke="#000" points="2693.339 -164.5 2703.339 -161 2693.339 -157.5 2693.339 -164.5"/></g><g id="node24" class="node"><title>SessionExpiredPage</title><polygon fill="#ffffb3" stroke="#000" points="1912.308 -122 1781.692 -122 1781.692 -86 1912.308 -86 1912.308 -122"/><text x="1847" y="-99.8" fill="#000" font-family="Times,serif" font-size="14" text-anchor="middle">SessionExpiredPage</text></g><g id="edge24" class="edge"><title>SessionExpiredPage-&gt;AppModule</title><path fill="none" stroke="#000" d="M1847,-122.0225C1847,-139.3734 1847,-163 1847,-163 1847,-163 2693.1908,-163 2693.1908,-163"/><polygon fill="#000" stroke="#000" points="2693.191 -166.5 2703.191 -163 2693.191 -159.5 2693.191 -166.5"/></g><g id="node25" class="node"><title>SignupComponent</title><polygon fill="#ffffb3" stroke="#000" points="1763.506 -122 1642.494 -122 1642.494 -86 1763.506 -86 1763.506 -122"/><text x="1703" y="-99.8" fill="#000" font-family="Times,serif" font-size="14" text-anchor="middle">SignupComponent</text></g><g id="edge25" class="edge"><title>SignupComponent-&gt;AppModule</title><path fill="none" stroke="#000" d="M1703,-122.302C1703,-140.2699 1703,-165 1703,-165 1703,-165 2693.1861,-165 2693.1861,-165"/><polygon fill="#000" stroke="#000" points="2693.186 -168.5 2703.186 -165 2693.186 -161.5 2693.186 -168.5"/></g><g id="node26" class="node"><title>SkillsComponent</title><polygon fill="#ffffb3" stroke="#000" points="1624.732 -122 1511.268 -122 1511.268 -86 1624.732 -86 1624.732 -122"/><text x="1568" y="-99.8" fill="#000" font-family="Times,serif" font-size="14" text-anchor="middle">SkillsComponent</text></g><g id="edge26" class="edge"><title>SkillsComponent-&gt;AppModule</title><path fill="none" stroke="#000" d="M1568,-122.2222C1568,-140.8285 1568,-167 1568,-167 1568,-167 2693.1099,-167 2693.1099,-167"/><polygon fill="#000" stroke="#000" points="2693.11 -170.5 2703.11 -167 2693.11 -163.5 2693.11 -170.5"/></g><g id="node27" class="node"><title>SocialIconsComponent</title><polygon fill="#ffffb3" stroke="#000" points="1493.146 -122 1346.854 -122 1346.854 -86 1493.146 -86 1493.146 -122"/><text x="1420" y="-99.8" fill="#000" font-family="Times,serif" font-size="14" text-anchor="middle">SocialIconsComponent</text></g><g id="edge27" class="edge"><title>SocialIconsComponent-&gt;AppModule</title><path fill="none" stroke="#000" d="M1420,-122.1061C1420,-141.3391 1420,-169 1420,-169 1420,-169 2693.157,-169 2693.157,-169"/><polygon fill="#000" stroke="#000" points="2693.157 -172.5 2703.157 -169 2693.157 -165.5 2693.157 -172.5"/></g><g id="node28" class="node"><title>SupporterModalComponent</title><polygon fill="#ffffb3" stroke="#000" points="1328.591 -122 1155.409 -122 1155.409 -86 1328.591 -86 1328.591 -122"/><text x="1242" y="-99.8" fill="#000" font-family="Times,serif" font-size="14" text-anchor="middle">SupporterModalComponent</text></g><g id="edge28" class="edge"><title>SupporterModalComponent-&gt;AppModule</title><path fill="none" stroke="#000" d="M1242,-122.308C1242,-142.1455 1242,-171 1242,-171 1242,-171 2693.2325,-171 2693.2325,-171"/><polygon fill="#000" stroke="#000" points="2693.233 -174.5 2703.233 -171 2693.233 -167.5 2693.233 -174.5"/></g><g id="node29" class="node"><title>TestimonialsComponent</title><polygon fill="#ffffb3" stroke="#000" points="1137.657 -122 984.343 -122 984.343 -86 1137.657 -86 1137.657 -122"/><text x="1061" y="-99.8" fill="#000" font-family="Times,serif" font-size="14" text-anchor="middle">TestimonialsComponent</text></g><g id="edge29" class="edge"><title>TestimonialsComponent-&gt;AppModule</title><path fill="none" stroke="#000" d="M1061,-122.1289C1061,-142.5724 1061,-173 1061,-173 1061,-173 2692.9527,-173 2692.9527,-173"/><polygon fill="#000" stroke="#000" points="2692.953 -176.5 2702.953 -173 2692.953 -169.5 2692.953 -176.5"/></g><g id="node30" class="node"><title>ThankYouModalComponent</title><polygon fill="#ffffb3" stroke="#000" points="965.756 -122 788.244 -122 788.244 -86 965.756 -86 965.756 -122"/><text x="877" y="-99.8" fill="#000" font-family="Times,serif" font-size="14" text-anchor="middle">ThankYouModalComponent</text></g><g id="edge30" class="edge"><title>ThankYouModalComponent-&gt;AppModule</title><path fill="none" stroke="#000" d="M877,-122.2843C877,-143.3211 877,-175 877,-175 877,-175 2692.9209,-175 2692.9209,-175"/><polygon fill="#000" stroke="#000" points="2692.921 -178.5 2702.921 -175 2692.921 -171.5 2692.921 -178.5"/></g><g id="node33" class="node"><title>AppComponent</title><polygon fill="#80b1d3" stroke="#000" points="2799.439 -252 2690.561 -252 2690.561 -216 2799.439 -216 2799.439 -252"/><text x="2745" y="-229.8" fill="#000" font-family="Times,serif" font-size="14" text-anchor="middle">AppComponent</text></g><g id="edge32" class="edge"><title>AppModule-&gt;AppComponent</title><path fill="none" stroke="#000" stroke-dasharray="1 5" d="M2745,-187.1061C2745,-187.1061 2745,-205.991 2745,-205.991"/><polygon fill="#000" stroke="#000" points="2741.5 -205.991 2745 -215.991 2748.5 -205.991 2741.5 -205.991"/></g><g id="node32" class="node"><title>AppRoutingModule</title><polygon fill="#8dd3c7" stroke="#000" points="764.274 -122 761.274 -126 740.274 -126 737.274 -122 635.726 -122 635.726 -86 764.274 -86 764.274 -122"/><text x="700" y="-99.8" fill="#000" font-family="Times,serif" font-size="14" text-anchor="middle">AppRoutingModule</text></g><g id="edge31" class="edge"><title>AppRoutingModule-&gt;AppModule</title><path fill="none" stroke="#000" d="M700,-122.0449C700,-143.6623 700,-177 700,-177 700,-177 2693.2237,-177 2693.2237,-177"/><polygon fill="#000" stroke="#000" points="2693.224 -180.5 2703.224 -177 2693.224 -173.5 2693.224 -180.5"/></g><g id="node34" class="node"><title>AuthService</title><ellipse cx="553" cy="-104" fill="#fdb462" stroke="#000" rx="59.108" ry="18"/><text x="553" y="-99.8" fill="#000" font-family="Times,serif" font-size="14" text-anchor="middle">AuthService</text></g><g id="edge33" class="edge"><title>AuthService-&gt;AppModule</title><path fill="none" stroke="#000" d="M553,-122.1554C553,-144.3519 553,-179 553,-179 553,-179 2693.1692,-179 2693.1692,-179"/><polygon fill="#000" stroke="#000" points="2693.169 -182.5 2703.169 -179 2693.169 -175.5 2693.169 -182.5"/></g><g id="node35" class="node"><title>FakeService</title><ellipse cx="417" cy="-104" fill="#fdb462" stroke="#000" rx="58.525" ry="18"/><text x="417" y="-99.8" fill="#000" font-family="Times,serif" font-size="14" text-anchor="middle">FakeService</text></g><g id="edge34" class="edge"><title>FakeService-&gt;AppModule</title><path fill="none" stroke="#000" d="M417,-122.2479C417,-145.0179 417,-181 417,-181 417,-181 2693.1069,-181 2693.1069,-181"/><polygon fill="#000" stroke="#000" points="2693.107 -184.5 2703.107 -181 2693.107 -177.5 2693.107 -184.5"/></g><g id="node36" class="node"><title>GithubService</title><ellipse cx="273" cy="-104" fill="#fdb462" stroke="#000" rx="66.632" ry="18"/><text x="273" y="-99.8" fill="#000" font-family="Times,serif" font-size="14" text-anchor="middle">GithubService</text></g><g id="edge35" class="edge"><title>GithubService-&gt;AppModule</title><path fill="none" stroke="#000" d="M273,-122.3228C273,-145.6602 273,-183 273,-183 273,-183 2693.131,-183 2693.131,-183"/><polygon fill="#000" stroke="#000" points="2693.131 -186.5 2703.131 -183 2693.131 -179.5 2693.131 -186.5"/></g><g id="node37" class="node"><title>HomePageService</title><ellipse cx="106" cy="-104" fill="#fdb462" stroke="#000" rx="82.222" ry="18"/><text x="106" y="-99.8" fill="#000" font-family="Times,serif" font-size="14" text-anchor="middle">HomePageService</text></g><g id="edge36" class="edge"><title>HomePageService-&gt;AppModule</title><path fill="none" stroke="#000" d="M106,-122.3802C106,-146.2785 106,-185 106,-185 106,-185 2693.2816,-185 2693.2816,-185"/><polygon fill="#000" stroke="#000" points="2693.282 -188.5 2703.282 -185 2693.282 -181.5 2693.282 -188.5"/></g></g></svg>